<?xml version="1.0" encoding="UTF-8" standalone="no"?>
<!-- Created with Inkscape (http://www.inkscape.org/) -->

<svg
   version="1.1"
   id="svg1049"
   width="1024"
   height="1024"
   viewBox="0 0 1024 1024"
   sodipodi:docname="logo.svg"
   inkscape:version="1.2.1 (9c6d41e410, 2022-07-14)"
   xml:space="preserve"
   inkscape:export-filename="logo512.png"
   inkscape:export-xdpi="76.383087"
   inkscape:export-ydpi="76.383087"
   xmlns:inkscape="http://www.inkscape.org/namespaces/inkscape"
   xmlns:sodipodi="http://sodipodi.sourceforge.net/DTD/sodipodi-0.dtd"
   xmlns="http://www.w3.org/2000/svg"
   xmlns:svg="http://www.w3.org/2000/svg"><defs
     id="defs1053"><clipPath
       clipPathUnits="userSpaceOnUse"
       id="clipPath49894"><path
         id="path49896"
         style="fill:#ff0000;fill-opacity:1;fill-rule:nonzero;stroke:none"
         d="m 550.19531,570.33789 v 5.07227 h 15.09571 c 0.0318,-0.008 0.0667,-0.0137 0.10742,-0.0137 h 0.35351 0.34571 0.34765 0.30469 0.32422 0.32812 0.53516 0.46484 c 0.12658,0.002 0.25444,-0.003 0.38086,0.004 0.0352,0.003 0.0703,0.006 0.10547,0.01 h 12.5 c 0.0722,-0.003 0.14463,-0.007 0.2168,-0.01 0.3837,-0.0146 0.76646,-0.0253 1.15039,-0.0312 0.379,-0.005 0.75769,-0.007 1.13672,-0.008 0.29066,-0.005 0.5811,0.0173 0.87109,0.0332 0.12298,0.006 0.24606,0.0108 0.36914,0.0156 H 602.375 v -5.07227 z" /></clipPath><clipPath
       clipPathUnits="userSpaceOnUse"
       id="clipPath50147"><path
         id="path50149"
         style="fill:#ff0000;fill-opacity:1;fill-rule:nonzero;stroke:none"
         d="m 181.60547,196.93164 v 643.49414 h 629.2832 V 196.93164 Z m 402.28711,378.42969 c 0.29066,-0.005 0.5811,0.0173 0.87109,0.0332 0.30712,0.015 0.61477,0.0238 0.92188,0.0391 0.23905,0.0116 0.47753,0.0233 0.71679,0.0293 0.32923,0.006 0.65913,0.007 0.98828,0.008 0.28933,4.8e-4 0.57786,0.002 0.86719,0.002 0.25145,2e-4 0.50441,-2e-5 0.75586,0 0.2147,2e-5 0.42982,0 0.64453,0 0.1337,-10e-4 0.26711,0.004 0.40039,-0.008 0.13842,-0.0167 0.27707,-0.0314 0.41602,-0.043 0.1819,-0.0132 0.30129,0.0164 0.43164,0.14648 0.0836,0.0983 0.0927,0.22088 0.0957,0.34375 0.001,0.0636 0.001,0.0296 -0.004,0.10351 -0.0239,0.37232 -0.4116,0.34206 -0.375,-0.0293 0.004,-0.0405 0.002,-0.0184 0.002,-0.0644 -10e-4,-0.006 -0.006,-0.097 -0.004,-0.0977 0.003,0 0.005,0.005 0.008,0.004 0.002,0 -0.002,-0.004 -0.002,-0.006 0.006,-0.0457 -0.10539,-0.0214 -0.12109,-0.0254 -0.13815,0.0114 -0.2764,0.0286 -0.41406,0.0449 -0.14457,0.013 -0.29055,0.007 -0.43555,0.008 -0.21472,0 -0.42787,2e-5 -0.64258,0 -0.25154,-2e-5 -0.50432,2e-4 -0.75586,0 -0.2897,0 -0.57944,8.9e-4 -0.86914,0 -0.33206,-0.002 -0.66408,-0.002 -0.99609,-0.008 -0.17456,-0.004 -0.34898,-0.0148 -0.52344,-0.0234 -0.006,0.0572 -0.26205,0.14233 -0.10352,0.15625 -0.0123,-10e-4 -0.0249,9.2e-4 -0.0371,0 -0.0394,-10e-4 -0.078,-0.002 -0.11719,-0.006 -0.036,-0.004 -0.0716,-0.008 -0.10742,-0.0137 -0.0104,0.023 -0.0251,0.0434 -0.0469,0.0566 0.13516,0.11186 0.12707,0.28896 -0.15234,0.27734 -0.23427,-0.01 -0.46904,-0.0218 -0.70313,-0.0351 -0.19184,-0.008 -0.38281,-0.0243 -0.57422,-0.0391 -0.24025,-0.0179 -0.47961,-0.0304 -0.7207,-0.0234 -0.25697,1.4e-4 -0.51451,-8e-4 -0.77148,0 -0.19087,10e-4 -0.38143,0.004 -0.57227,0.008 -0.25173,0.005 -0.50277,0.0105 -0.75391,0.0293 -0.29536,0.0241 -0.59116,0.0599 -0.88281,0.11328 -0.29904,0.0477 -0.59948,0.08 -0.90039,0.11328 -0.31876,0.0181 -0.63706,0.0126 -0.95508,-0.0176 -0.29117,-0.0251 -0.58186,-0.057 -0.87304,-0.082 -0.28504,-0.0166 -0.57196,-0.0176 -0.85743,-0.0156 -0.21244,-10e-4 -0.42432,4e-4 -0.63671,-0.006 -0.17302,-0.006 -0.34504,-0.0147 -0.51758,-0.0293 -0.25026,-0.022 -0.50101,-0.051 -0.74805,-0.0977 -0.13027,-0.0216 -0.26001,-0.057 -0.39258,-0.0391 -0.15011,0.0135 -0.30079,0.0323 -0.44922,0.0586 -0.24782,0.0422 -0.49537,0.0851 -0.74609,0.10547 -0.28834,0.027 -0.58261,0.0717 -0.87109,0.0273 -0.20584,-0.0436 -0.40746,-0.10116 -0.60938,-0.16016 -0.25386,-0.0654 -0.50906,-0.12946 -0.76562,-0.1836 0.0765,0.13451 -0.0507,0.2947 -0.27344,0.19336 -0.007,-0.003 -10e-4,-0.002 -0.0137,-0.006 -0.0448,-0.0133 -0.0929,-0.0174 -0.13868,-0.0254 -0.0886,-0.0121 -0.17822,-0.0238 -0.26562,-0.043 -0.10569,-0.0229 -0.20936,-0.0485 -0.31641,-0.0645 -0.17763,-0.0277 -0.35727,-0.0516 -0.53711,-0.0586 -0.003,-1.4e-4 -0.007,1.4e-4 -0.01,0 0.0739,0.0517 0.14184,0.14211 0,0.14258 h -0.002 c -0.003,10e-6 -0.008,-2e-5 -0.0117,0 -0.0185,8e-5 -0.0361,0.002 -0.0547,0.002 -0.0505,10e-4 -0.10184,3.5e-4 -0.15234,0.002 -0.0726,10e-4 -0.1444,0.002 -0.2168,0.008 -0.0876,0.008 -0.17462,0.0195 -0.26172,0.0312 -0.10696,0.0118 -0.21559,0.0249 -0.32227,0.0391 -0.11623,0.0156 -0.23218,0.0265 -0.34961,0.0273 -0.11601,0 -0.2315,-9e-4 -0.34765,0 -0.12089,10e-4 -0.24245,0.004 -0.36328,0.008 -0.11872,0.005 -0.23733,0.0103 -0.35547,0.0234 -0.11205,0.0109 -0.22359,0.0204 -0.33594,0.0273 -0.0824,0.004 -0.16555,0.006 -0.24805,0.004 -0.0625,0 -0.125,-0.002 -0.1875,-0.004 -0.0661,-0.003 -0.13146,-0.006 -0.19726,-0.0117 -0.0657,-0.005 -0.13137,-0.004 -0.19727,-0.004 -0.18652,9.9e-4 -0.18652,-0.1855 0,-0.1875 0.0705,-10e-4 0.14054,-10e-4 0.21094,0.004 0.0635,0.006 0.12771,0.01 0.19141,0.0117 0.0607,0.002 0.12094,4e-4 0.18164,0.002 0.079,0.002 0.15743,0.002 0.23633,-0.002 0.10921,-0.007 0.21919,-0.0147 0.32812,-0.0254 0.12183,-0.0135 0.2428,-0.0204 0.36524,-0.0254 0.1225,-0.004 0.24644,-0.007 0.36914,-0.008 0.11665,-5.9e-4 0.23309,-0.002 0.3496,-0.002 0.10913,-8e-4 0.21818,-0.0109 0.32618,-0.0254 0.10814,-0.0144 0.21578,-0.0251 0.32422,-0.0371 0.0573,-0.008 0.11458,-0.0145 0.17187,-0.0215 -0.10527,-0.0385 -0.13489,-0.13143 -0.0898,-0.20703 -0.0176,-0.002 -0.0352,-0.004 -0.0527,-0.006 -0.11814,-0.009 -0.23712,0.002 -0.35547,-0.002 h -0.46484 -0.53516 -0.32812 -0.19141 c -0.01,0.0871 -0.0783,0.17864 -0.25,0.18555 -0.11537,0.004 -0.23024,0.002 -0.3457,0.002 h -0.35938 v 0.002 c -0.18802,0 -0.27885,-0.0945 -0.27734,-0.18945 h -0.25391 l 0.002,-0.002 c -0.37305,0 -0.37305,-0.37696 0,-0.37696 h 0.35351 0.34571 0.34765 0.30469 0.32422 0.32812 0.53516 0.46484 c 0.12658,0.002 0.25444,-0.003 0.38086,0.004 0.16858,0.0159 0.33683,0.0357 0.50586,0.0469 0.18167,0.0116 0.36297,0.0155 0.54492,0.0195 0.14102,0.003 0.28278,0.003 0.42383,0.004 0.3283,6.3e-4 0.65608,0.002 0.98438,0.002 0.22253,6e-5 0.44544,-2e-5 0.66797,0 0.18663,10e-6 0.37196,-1e-5 0.55859,0 h 0.63672 0.48828 c 0.33156,-0.0112 0.66244,-0.0204 0.99414,-0.0254 0.3801,-0.005 0.76051,-0.008 1.14063,-0.01 0.24669,-0.006 0.49374,-10e-4 0.74023,0.01 0.31514,0.0106 0.63003,0.0155 0.94531,0.0195 0.21806,0.003 0.43624,0.003 0.6543,0.004 0.23431,0.003 0.46694,5.4e-4 0.70117,-0.006 0.39337,-0.01 0.78818,-0.0165 1.18164,-0.0215 0.23402,-0.003 0.46713,-0.007 0.70117,-0.008 0.3176,-0.002 0.63585,-0.0222 0.95313,-0.0352 0.3837,-0.0146 0.76646,-0.0254 1.15039,-0.0312 0.379,-0.005 0.75769,-0.007 1.13672,-0.008 z" /></clipPath><clipPath
       clipPathUnits="userSpaceOnUse"
       id="clipPath50157"><path
         id="path50159"
         style="fill:#ff0000;fill-opacity:1;fill-rule:nonzero;stroke:none"
         d="M 197.22656,555.14844 V 780.34961 H 795.86133 V 555.14844 Z m 386.66602,20.21289 c 0.29066,-0.005 0.5811,0.0173 0.87109,0.0332 0.30712,0.015 0.61477,0.0238 0.92188,0.0391 0.23905,0.0116 0.47753,0.0233 0.71679,0.0293 0.32923,0.006 0.65913,0.007 0.98828,0.008 0.28933,4.8e-4 0.57786,0.002 0.86719,0.002 0.25145,2e-4 0.50441,-2e-5 0.75586,0 0.2147,2e-5 0.42982,0 0.64453,0 0.1337,-10e-4 0.26711,0.004 0.40039,-0.008 0.13842,-0.0167 0.27707,-0.0314 0.41602,-0.043 0.1819,-0.0132 0.30129,0.0164 0.43164,0.14648 0.0836,0.0983 0.0927,0.22088 0.0957,0.34375 0.001,0.0636 0.001,0.0296 -0.004,0.10351 -0.0239,0.37232 -0.4116,0.34206 -0.375,-0.0293 0.004,-0.0405 0.002,-0.0184 0.002,-0.0644 -10e-4,-0.006 -0.006,-0.097 -0.004,-0.0977 0.003,0 0.005,0.005 0.008,0.004 0.002,0 -0.002,-0.004 -0.002,-0.006 0.006,-0.0457 -0.10539,-0.0214 -0.12109,-0.0254 -0.13815,0.0114 -0.2764,0.0286 -0.41406,0.0449 -0.14457,0.013 -0.29055,0.007 -0.43555,0.008 -0.21472,0 -0.42787,2e-5 -0.64258,0 -0.25154,-2e-5 -0.50432,2e-4 -0.75586,0 -0.2897,0 -0.57944,8.9e-4 -0.86914,0 -0.33206,-0.002 -0.66408,-0.002 -0.99609,-0.008 -0.17456,-0.004 -0.34898,-0.0148 -0.52344,-0.0234 -0.006,0.0572 -0.26205,0.14233 -0.10352,0.15625 -0.0123,-10e-4 -0.0249,9.2e-4 -0.0371,0 -0.0394,-10e-4 -0.078,-0.002 -0.11719,-0.006 -0.036,-0.004 -0.0716,-0.008 -0.10742,-0.0137 -0.0104,0.023 -0.0251,0.0434 -0.0469,0.0566 0.13516,0.11186 0.12707,0.28896 -0.15234,0.27734 -0.23427,-0.01 -0.46904,-0.0218 -0.70313,-0.0351 -0.19184,-0.008 -0.38281,-0.0243 -0.57422,-0.0391 -0.24025,-0.0179 -0.47961,-0.0304 -0.7207,-0.0234 -0.25697,1.4e-4 -0.51451,-8e-4 -0.77148,0 -0.19087,10e-4 -0.38143,0.004 -0.57227,0.008 -0.25173,0.005 -0.50277,0.0105 -0.75391,0.0293 -0.29536,0.0241 -0.59116,0.0599 -0.88281,0.11328 -0.29904,0.0477 -0.59948,0.08 -0.90039,0.11328 -0.31876,0.0181 -0.63706,0.0126 -0.95508,-0.0176 -0.29117,-0.0251 -0.58186,-0.057 -0.87304,-0.082 -0.28504,-0.0166 -0.57196,-0.0176 -0.85743,-0.0156 -0.21244,-10e-4 -0.42432,4e-4 -0.63671,-0.006 -0.17302,-0.006 -0.34504,-0.0147 -0.51758,-0.0293 -0.25026,-0.022 -0.50101,-0.051 -0.74805,-0.0977 -0.13027,-0.0216 -0.26001,-0.057 -0.39258,-0.0391 -0.15011,0.0135 -0.30079,0.0323 -0.44922,0.0586 -0.24782,0.0422 -0.49537,0.0851 -0.74609,0.10547 -0.28834,0.027 -0.58261,0.0717 -0.87109,0.0273 -0.20584,-0.0436 -0.40746,-0.10116 -0.60938,-0.16016 -0.25386,-0.0654 -0.50906,-0.12946 -0.76562,-0.1836 0.0765,0.13451 -0.0507,0.2947 -0.27344,0.19336 -0.007,-0.003 -10e-4,-0.002 -0.0137,-0.006 -0.0448,-0.0133 -0.0929,-0.0174 -0.13868,-0.0254 -0.0886,-0.0121 -0.17822,-0.0238 -0.26562,-0.043 -0.10569,-0.0229 -0.20936,-0.0485 -0.31641,-0.0645 -0.17763,-0.0277 -0.35727,-0.0516 -0.53711,-0.0586 -0.003,-1.4e-4 -0.007,1.4e-4 -0.01,0 0.0739,0.0517 0.14184,0.14211 0,0.14258 h -0.002 c -0.003,10e-6 -0.008,-2e-5 -0.0117,0 -0.0185,8e-5 -0.0361,0.002 -0.0547,0.002 -0.0505,10e-4 -0.10184,3.5e-4 -0.15234,0.002 -0.0726,10e-4 -0.1444,0.002 -0.2168,0.008 -0.0876,0.008 -0.17462,0.0195 -0.26172,0.0312 -0.10696,0.0118 -0.21559,0.0249 -0.32227,0.0391 -0.11623,0.0156 -0.23218,0.0265 -0.34961,0.0273 -0.11601,0 -0.2315,-9e-4 -0.34765,0 -0.12089,10e-4 -0.24245,0.004 -0.36328,0.008 -0.11872,0.005 -0.23733,0.0103 -0.35547,0.0234 -0.11205,0.0109 -0.22359,0.0204 -0.33594,0.0273 -0.0824,0.004 -0.16555,0.006 -0.24805,0.004 -0.0625,0 -0.125,-0.002 -0.1875,-0.004 -0.0661,-0.003 -0.13146,-0.006 -0.19726,-0.0117 -0.0657,-0.005 -0.13137,-0.004 -0.19727,-0.004 -0.18652,9.9e-4 -0.18652,-0.1855 0,-0.1875 0.0705,-10e-4 0.14054,-10e-4 0.21094,0.004 0.0635,0.006 0.12771,0.01 0.19141,0.0117 0.0607,0.002 0.12094,4e-4 0.18164,0.002 0.079,0.002 0.15743,0.002 0.23633,-0.002 0.10921,-0.007 0.21919,-0.0147 0.32812,-0.0254 0.12183,-0.0135 0.2428,-0.0204 0.36524,-0.0254 0.1225,-0.004 0.24644,-0.007 0.36914,-0.008 0.11665,-5.9e-4 0.23309,-0.002 0.3496,-0.002 0.10913,-8e-4 0.21818,-0.0109 0.32618,-0.0254 0.10814,-0.0144 0.21578,-0.0251 0.32422,-0.0371 0.0573,-0.008 0.11458,-0.0145 0.17187,-0.0215 -0.10527,-0.0385 -0.13489,-0.13143 -0.0898,-0.20703 -0.0176,-0.002 -0.0352,-0.004 -0.0527,-0.006 -0.11814,-0.009 -0.23712,0.002 -0.35547,-0.002 h -0.46484 -0.53516 -0.32812 -0.19141 c -0.01,0.0871 -0.0783,0.17864 -0.25,0.18555 -0.11537,0.004 -0.23024,0.002 -0.3457,0.002 h -0.35938 v 0.002 c -0.18802,0 -0.27885,-0.0945 -0.27734,-0.18945 h -0.25391 l 0.002,-0.002 c -0.37305,0 -0.37305,-0.37696 0,-0.37696 h 0.35351 0.34571 0.34765 0.30469 0.32422 0.32812 0.53516 0.46484 c 0.12658,0.002 0.25444,-0.003 0.38086,0.004 0.16858,0.0159 0.33683,0.0357 0.50586,0.0469 0.18167,0.0116 0.36297,0.0155 0.54492,0.0195 0.14102,0.003 0.28278,0.003 0.42383,0.004 0.3283,6.3e-4 0.65608,0.002 0.98438,0.002 0.22253,6e-5 0.44544,-2e-5 0.66797,0 0.18663,10e-6 0.37196,-1e-5 0.55859,0 h 0.63672 0.48828 c 0.33156,-0.0112 0.66244,-0.0204 0.99414,-0.0254 0.3801,-0.005 0.76051,-0.008 1.14063,-0.01 0.24669,-0.006 0.49374,-10e-4 0.74023,0.01 0.31514,0.0106 0.63003,0.0155 0.94531,0.0195 0.21806,0.003 0.43624,0.003 0.6543,0.004 0.23431,0.003 0.46694,5.4e-4 0.70117,-0.006 0.39337,-0.01 0.78818,-0.0165 1.18164,-0.0215 0.23402,-0.003 0.46713,-0.007 0.70117,-0.008 0.3176,-0.002 0.63585,-0.0222 0.95313,-0.0352 0.3837,-0.0146 0.76646,-0.0254 1.15039,-0.0312 0.379,-0.005 0.75769,-0.007 1.13672,-0.008 z" /></clipPath></defs><sodipodi:namedview
     id="namedview1051"
     pagecolor="#ffffff"
     bordercolor="#000000"
     borderopacity="0.25"
     inkscape:showpageshadow="2"
     inkscape:pageopacity="0.0"
     inkscape:pagecheckerboard="0"
     inkscape:deskcolor="#d1d1d1"
     showgrid="false"
     inkscape:zoom="1.6585247"
     inkscape:cx="365.98792"
     inkscape:cy="589.6807"
     inkscape:window-width="1920"
     inkscape:window-height="974"
     inkscape:window-x="-11"
     inkscape:window-y="-11"
     inkscape:window-maximized="1"
     inkscape:current-layer="g1055" /><g
     inkscape:groupmode="layer"
     inkscape:label="Image"
     id="g1055"><path
       id="path2310"
       clip-path="url(#clipPath50147)"
       style="fill:#000000;fill-opacity:1;stroke:#000000;stroke-opacity:1"
       d="m 589.04297,197.43945 c -110.34729,-0.10307 -288.19826,0.75094 -293.54297,1.73633 -12.40693,2.28742 -26.87464,10.88879 -35.29688,20.98438 -5.44698,6.52922 -11.73087,19.56348 -13.18164,27.33984 -0.79896,4.28278 -1.03386,42.6498 -0.82031,134.05273 l 0.29883,128.05274 3.6875,7.44726 c 5.21813,10.53636 9.87426,16.68818 16.98633,22.44727 7.08889,5.74032 7.83957,7.04699 4.63086,8.05469 -4.04026,1.26885 -13.17598,7.60028 -17.08594,11.84179 -6.42624,6.97123 -9.30781,12.4903 -15.71484,30.10352 -3.40118,9.34997 -9.92224,26.90003 -14.49219,39 -4.56999,12.09997 -10.78981,29.20003 -13.82031,38 -3.03053,8.79997 -7.84881,22.52503 -10.70703,30.5 -2.85824,7.97497 -7.91592,22.37503 -11.24024,32 l -6.04492,17.5 -0.45508,18.01367 c -0.59724,23.64759 0.61998,33.53695 5.2832,42.97461 8.11825,16.43001 22.69925,27.08282 42.47071,31.02734 5.22101,1.04163 57.6271,1.31143 266.00195,1.375 280.73469,0.0857 263.45987,0.39777 278,-5.00195 15.93108,-5.91625 24.49166,-13.47056 31.26562,-27.58789 l 4.19727,-8.74609 0.68555,-23.02735 C 810.52587,762.86212 810.45063,750.475 809.98047,748 c -1.34486,-7.07958 -19.67428,-59.95991 -38.47461,-111 -7.66625,-20.81275 -11.48749,-31.42849 -21.13672,-58.72461 -4.41888,-12.50035 -13.4766,-23.52113 -24.86914,-30.25781 -2.2,-1.30091 -4.13856,-2.46364 -4.30859,-2.58399 -0.17003,-0.12035 3.01348,-3.54278 7.07617,-7.60547 7.77022,-7.77021 13.38933,-16.61335 16.73437,-26.33593 C 746.95808,505.80646 747,503.03207 747,377.73828 c 0,-140.37669 0.29067,-133.29614 -5.9668,-145.6582 -6.32688,-12.49924 -19.29073,-24.45309 -32.70898,-30.16016 L 700.5,198.59375 668,197.89258 c -12.89281,-0.27787 -42.17461,-0.41877 -78.95703,-0.45313 z m -64.17188,13.69922 c 184.56542,0.0469 170.64833,-0.43638 184.12696,6.36719 11.17712,5.64185 18.2642,14.22434 22.29297,26.99414 l 2.20898,7 V 379 506.5 l -3.14453,6 c -5.90325,11.26326 -17.17067,21.64495 -27.94727,25.75 L 696.5,540.5 500,540.64453 c -108.07467,0.0795 -198.73821,-0.23541 -201.47266,-0.69922 -19.89357,-3.37429 -35.18422,-17.89384 -38.38281,-36.44531 -1.45668,-8.44864 -1.4898,-246.02008 -0.0351,-253.5 2.94334,-15.13611 14.02302,-28.97068 27.6914,-34.57617 6.63791,-2.72227 6.98764,-2.75334 38.19922,-3.53711 17.32494,-0.43506 106.81677,-0.77145 198.87109,-0.74805 z m -27.16797,13.73242 c -138.66992,0.0551 -193.97646,0.3914 -197,1.19532 -6.42846,1.70923 -15.42095,6.84986 -18.88476,10.79492 -1.71168,1.94949 -4.50842,6.49077 -6.21484,10.09179 L 272.5,253.5 272.23828,376.68164 c -0.26052,122.67337 -0.25328,123.20387 1.82031,128.74609 2.9083,7.7731 10.40645,15.69175 18.74805,19.79883 l 6.65039,3.27344 92.52149,0.5 c 50.88686,0.275 102.42151,0.38829 114.52148,0.25195 12.09997,-0.13633 58.90015,-0.42577 104,-0.64453 93.65625,-0.45428 87.32662,0.14987 97.57031,-9.33398 3.99648,-3.70003 6.98981,-7.65483 9.17969,-12.13086 L 720.5,500.5 v -123 -123 l -2.38867,-6.29688 c -2.54216,-6.69928 -8.94549,-14.72173 -14.4043,-18.04687 -1.76356,-1.07424 -5.45703,-2.72088 -8.20703,-3.6582 -4.64586,-1.58347 -18.65652,-1.69816 -197.79688,-1.62696 z m -2.31445,14.38672 c 5.71879,-0.13967 11.2048,0.0414 16.14453,0.58399 14.33397,1.57436 31.89148,6.27967 42.69336,11.43945 35.78868,17.09538 63.73469,47.96957 75.19336,83.07227 4.24836,13.01443 5.69252,21.57887 6.26367,37.14648 0.47599,12.97399 0.24665,16.55328 -1.70312,26.5 -7.28094,37.14372 -24.64598,65.21223 -54.125,87.48828 -15.13874,11.4397 -36.53094,21.25019 -55.85547,25.61524 -10.11241,2.28417 -31.9454,3.20074 -43.5,1.82617 C 436.71575,507.72096 392.07239,476.18204 371.60547,436 c -5.48171,-10.76202 -7.82357,-17.12763 -11.77344,-32 -1.98824,-7.48623 -2.26035,-10.94496 -2.28125,-29 -0.0217,-18.7511 0.20102,-21.43843 2.61328,-31.5 3.49292,-14.56909 8.81241,-26.48246 18.19532,-40.75195 15.40833,-23.43307 40.89311,-44.01213 67.64062,-54.61719 12.97074,-5.14275 32.23235,-8.45404 49.38867,-8.87305 z m 1.80664,12.76563 c -6.55304,0.0424 -13.37938,0.53775 -20.54101,1.47656 -20.16093,2.64287 -32.9181,7.74683 -52.98828,21.19727 -15.88551,10.64596 -23.1716,17.74362 -32.43164,31.59179 -13.44191,20.10207 -19.30469,35.62237 -21.35352,56.5293 -2.44953,24.99583 0.33284,41.38722 10.71289,63.11133 7.52655,15.75209 14.75023,26.20591 24.73633,35.79297 10.69878,10.27125 17.71484,15.43231 31.50195,23.18164 16.17107,9.08925 28.5848,13.02671 48.66797,15.43554 15.24427,1.82847 37.39522,-0.72476 50.63477,-5.83789 10.99255,-4.24532 12.69775,-5.11268 27.95507,-14.19336 21.75573,-12.9483 34.74147,-27.00632 45.81446,-49.59961 18.71656,-38.18919 18.39943,-75.03252 -0.97071,-112.74218 -11.8932,-23.15369 -29.33738,-39.23212 -58.43359,-53.85742 -16.44268,-8.265 -33.64553,-12.21321 -53.30469,-12.08594 z M 490,265.86328 v 26.02149 26.01953 l -15.99023,0.29882 c -15.59031,0.29032 -15.9744,0.24694 -15.38868,-1.70312 5.65393,-18.82373 19.1484,-41.92739 28.29102,-48.4375 z m 12.71289,0.17578 c 1.29467,0.0633 9.75702,8.16906 13.00781,12.46094 5.14541,6.79318 19.2793,36.57203 19.2793,40.61914 0,0.48452 -2.1375,0.78429 -4.75,0.66602 -2.6125,-0.11827 -9.92503,-0.35761 -16.25,-0.53125 l -11.5,-0.31446 -0.28711,-26.4707 c -0.15743,-14.55806 0.0676,-26.45079 0.5,-26.42969 z m -32.0957,0.24024 c 0.56677,-0.0743 0.96401,-0.0301 1.14648,0.15234 0.2489,0.2489 -1.3471,2.6153 -3.54883,5.25977 -8.38258,10.06822 -14.91602,22.74188 -20.64843,40.05859 l -2.73047,8.25 h -12.48633 -12.48633 l 4.75586,-9.01758 c 5.59528,-10.61204 18.58518,-28.2776 24.62695,-33.49023 5.12646,-4.42292 17.40368,-10.69264 21.3711,-11.21289 z m 51.59765,0.17187 c 1.10689,-1.1069 10.81405,3.44881 18.14063,8.51367 6.14189,4.2459 9.15377,7.35578 15.80469,16.3125 8.6551,11.6558 12.85493,18.67815 15.2832,25.56055 0.80781,2.28958 1.37482,4.06423 1.26172,3.94531 -0.1131,-0.11892 -5.67827,-0.35668 -12.36719,-0.52929 l -12.16211,-0.31446 -2.08984,-6.88086 c -2.8707,-9.45111 -10.60391,-27.70843 -13.79102,-32.55859 -1.44566,-2.2 -4.42611,-6.14033 -6.62304,-8.75586 -2.19697,-2.61552 -3.75263,-4.99738 -3.45704,-5.29297 z m -101.54296,26.88672 c 0.24309,0.24313 -1.36258,3.39027 -3.56836,6.99414 C 411.91024,308.81681 408,316.55908 408,318.35938 c 0,0.78441 -0.71204,1.69936 -1.58203,2.0332 C 404.39883,321.16739 396,321.1878 396,320.41797 c 0,-0.3197 2.80315,-4.43777 6.22852,-9.15235 5.57301,-7.67054 17.30073,-19.07035 18.44336,-17.92773 z m 153.78515,0.87109 c 0.91348,-0.91344 9.06893,7.45861 16.12891,16.55664 3.52781,4.54626 6.41406,8.48379 6.41406,8.75 0,0.26623 -2.64865,0.48438 -5.88477,0.48438 h -5.88281 l -2.2832,-5.75 c -1.25594,-3.1625 -3.8134,-8.83273 -5.68164,-12.60156 -1.86824,-3.76887 -3.13238,-7.11763 -2.81055,-7.43946 z m -130.7793,36.51368 -1.35156,7.88867 c -0.74358,4.33854 -1.68453,13.5137 -2.08984,20.38867 L 439.5,371.5 434,371.5625 c -3.025,0.034 -9.88753,-0.0957 -15.25,-0.28711 l -9.75,-0.34766 0.0176,-2.71484 c 0.0272,-4.11072 2.6549,-20.54893 4.61133,-28.84766 L 415.36523,332 h 5.16407 c 2.83991,0 9.21037,-0.2876 14.15625,-0.63867 z M 455.1582,331 H 473.08008 491 v 20.5 20.5 l -13.75,-0.19336 c -7.56247,-0.10597 -16.5625,-0.3516 -20,-0.54687 L 451,370.9043 v -3.35742 c 0,-3.90791 2.7425,-29.75373 3.58594,-33.79688 z m 47.17383,0 h 17.7207 17.72071 l 0.57812,3.25 c 0.3177,1.7875 0.88733,11.01253 1.26758,20.5 l 0.69141,17.25 h -18.59571 c -10.22804,0 -18.79351,-0.3375 -19.0332,-0.75 -0.23969,-0.4125 -0.41608,-9.63753 -0.39258,-20.5 z m 52.51367,0.5957 c 2.06008,-0.0288 4.93679,0.14055 8.90235,0.23633 7.56258,0.18265 13.89731,0.47936 14.07812,0.66016 0.49669,0.4967 4.863,26.12624 5.66602,33.25781 l 0.70508,6.25 -14.84961,-0.0156 c -8.16651,-0.008 -15.33071,-0.34595 -15.92188,-0.75 -0.59249,-0.40498 -1.17385,-4.54902 -1.29492,-9.23438 -0.1208,-4.675 -0.6422,-12.55 -1.1582,-17.5 -1.1417,-10.9525 -2.30717,-12.818 3.87304,-12.9043 z m -149.83398,0.13086 -1.41602,3.38867 c -0.77876,1.86384 -2.40229,9.68787 -3.60937,17.38672 -3.30476,21.07803 -2.03263,19.04865 -11.73633,18.70703 -6.33525,-0.22304 -8.25,-0.62126 -8.25,-1.71484 0,-2.90294 4.05729,-22.23226 6.13867,-29.24414 l 2.15235,-7.25 h 3.71484 c 2.04312,0 5.8062,-0.2865 8.36133,-0.63672 z m 195.71289,0.85742 c 3.09026,-0.14933 8.66506,17.40481 10.84961,34.16602 l 0.68359,5.25 -6.8789,-0.11523 C 594.80988,371.70654 595,371.84064 595,364.47656 c 0,-6.6145 -3.43216,-26.548 -5.11133,-29.68554 -0.85837,-1.60388 -0.43108,-1.80784 4.07617,-1.95704 2.76935,-0.0917 5.81133,-0.2042 6.75977,-0.25 z m -161.85938,49.65235 0.56055,6.63086 c 0.92541,10.96082 2.71407,27.49869 3.20508,29.63281 0.44226,1.9222 -0.0524,2 -12.74024,2 h -13.20117 l -1.47851,-3.5 c -1.92781,-4.5664 -6.13658,-25.36599 -6.17188,-30.5 l -0.0273,-4 14.92773,-0.13281 z m 101.36719,0.0898 c 0.63402,0.30377 0.76758,1.87779 0.76758,6.13477 0,5.76672 -2.12864,24.45547 -3.56445,31.28906 -0.51476,2.44998 -1.05144,2.48113 -26.72266,1.50586 l -8.78711,-0.33398 0.28711,-18.95313 0.28711,-18.95117 17.66797,-0.01 c 9.71749,-0.005 18.38002,-0.28138 19.25,-0.61523 0.33626,-0.12903 0.60311,-0.16768 0.81445,-0.0664 z M 596.25,382.75 c 0.4125,0.1375 4.35522,0.25 8.76172,0.25 h 8.01172 l -0.64844,4.25 c -0.98454,6.44713 -5.19174,20.60419 -7.875,26.5 l -2.38867,5.25 h -6.43945 -6.43946 l 2.43555,-8.25 c 1.37961,-4.6738 2.73718,-12.58482 3.13281,-18.25 0.38409,-5.49997 1.03672,-9.8875 1.44922,-9.75 z M 379.8418,383 H 388.91992 398 l 0.0137,6.75 c 0.0113,5.78692 2.31973,19.4866 4.55078,27 0.73654,2.48038 0.3616,2.53937 -8.56445,1.34961 l -4.5,-0.59961 -3.17383,-9 c -2.80417,-7.9521 -3.9356,-12.27449 -5.95508,-22.75 z M 451,383 h 20.12305 20.12304 l -0.5039,19.04883 c -0.27723,10.47637 -0.67028,19.1389 -0.87305,19.25 -0.20276,0.11113 -7.89306,0.0784 -17.08789,-0.0723 l -16.7168,-0.27539 -1.09179,-4.05469 c -1.40517,-5.21838 -3.92783,-24.13541 -3.95313,-29.64648 z m 102,0 h 15.5 15.5 v 2.32422 c 0,3.90856 -3.84594,23.84056 -5.72656,29.67578 l -1.77344,5.5 -13.86523,0.2793 -13.86524,0.27929 0.64649,-2.58007 c 1.3786,-5.49291 3.549,-23.27771 3.5664,-29.22852 z m 42.37891,47.11719 c 1.25353,-0.025 2.10618,0.0339 2.25586,0.18359 0.64382,0.64385 -6.38759,11.29133 -11.71094,17.73242 C 582.35686,452.34913 570,462.81273 570,461.51758 c 0,-0.33801 2.66661,-5.12427 5.92578,-10.63672 3.25917,-5.51248 6.48762,-12.21318 7.17383,-14.89063 l 1.24805,-4.86914 6.37109,-0.68164 c 1.75227,-0.18765 3.4066,-0.29723 4.66016,-0.32226 z m -149.45118,0.74219 0.62305,2.82031 c 3.9627,17.91102 10.69535,32.25088 23.04102,49.07031 1.55684,2.12104 1.54394,2.24609 -0.22071,2.17969 -3.45139,-0.12992 -9.49792,-2.85326 -14.51367,-6.53516 -5.87475,-4.31246 -17.21336,-17.15289 -23.51758,-26.63476 -3.78176,-5.68803 -9.88301,-18.6542 -9.08398,-19.30469 0.13395,-0.10905 5.5147,-0.51226 11.95703,-0.89649 z M 568.75,431.36914 c 3.45071,-0.92475 2.89009,1.39654 -3.16211,13.09375 -8.56261,16.54909 -19.34134,29.78741 -27.77148,34.10547 C 529.55878,482.79804 522,485.91284 522,485.08789 c 0,-0.44064 1.49192,-2.77677 3.31641,-5.19336 8.70028,-11.52375 17.18151,-29.51717 19.86328,-42.14453 l 1.2207,-5.75 10.04883,-0.0137 c 5.52742,-0.008 11.06328,-0.28555 12.30078,-0.61719 z m -172.62891,0.23242 c 0.20825,-0.17723 3.21821,-0.10444 6.6875,0.16211 l 6.30664,0.48438 1.65039,4.12695 c 0.90776,2.26909 3.58297,8.09328 5.94336,12.94336 2.36042,4.85005 4.29102,9.01258 4.29102,9.25 0,2.29492 -9.42292,-5.19677 -14.95117,-11.88672 -4.29895,-5.2023 -10.48803,-14.60328 -9.92774,-15.08008 z M 475.01172,432 h 16.14648 l -0.70703,26.75 c -0.38932,14.71247 -0.80757,26.87052 -0.92969,27.01758 -0.12211,0.14706 -3.58888,-3.2562 -7.70312,-7.5625 -5.95557,-6.23366 -8.51802,-9.95759 -12.56641,-18.26758 -2.79668,-5.74069 -6.03551,-13.5875 -7.19726,-17.4375 -1.16175,-3.85 -2.35392,-7.7875 -2.65039,-8.75 -0.49796,-1.61667 0.69109,-1.75 15.60742,-1.75 z m 28.30469,0 H 518.7832 534.25 l -0.62695,3.13477 c -0.78108,3.90537 -9.04677,22.65567 -12.94532,29.36523 -1.59783,2.75 -6.05348,8.7125 -9.90039,13.25 -3.84687,4.5375 -7.39427,8.25 -7.88476,8.25 -1.05957,0 -1.13213,-11.05549 -0.23438,-35.83984 z m 122.59961,122.76953 c 89.77028,0.0636 86.82022,0.80641 92.08398,4.0957 8.91983,5.57398 15.34582,13.06647 18.43555,21.49415 0.83478,2.27697 5.3219,14.71565 9.9707,27.64062 4.6488,12.92497 10.29641,27.99264 12.55078,33.48438 2.25437,5.4917 5.41496,14.04173 7.02344,19 1.60847,4.95823 7.0212,20.94065 12.02734,35.51562 C 790.36864,731.98741 796,749.68262 796,752.53516 c 0,4.72685 -4.02674,13.25599 -7.91797,16.77148 -4.51771,4.0815 -11.18516,8.04185 -16.08203,9.55078 -4.1541,1.28005 -541.91546,2.29449 -548.73047,1.03516 -13.86078,-2.56132 -24.5939,-12.80491 -25.89062,-24.71094 -0.64225,-5.89685 1.04014,-12.02259 11.57812,-42.18164 4.51617,-12.92497 11.05375,-31.82503 14.5293,-42 8.65815,-25.34755 10.93984,-31.68878 13.48828,-37.5 1.20597,-2.75 5.04356,-12.87503 8.52734,-22.5 11.04697,-30.52039 13.12536,-35.64484 15.98243,-39.39062 5.9992,-7.8654 15.99709,-13.38545 28.0332,-15.47657 3.9772,-0.69099 75.00798,-1.11619 211.98242,-1.26953 54.26628,-0.0607 94.49259,-0.11506 124.41602,-0.0937 z M 497.5,568.0332 c -116.04964,-0.003 -211.58147,0.36661 -212.29297,0.81836 C 283.96032,569.64311 272,596.3493 272,598.3418 c 0,0.53754 -4.25359,9.83623 -9.45312,20.66406 -5.19955,10.82783 -11.21493,24.145 -13.36719,29.5918 -8.01638,20.28743 -18.09411,45.08651 -20.59571,50.68164 -4.55259,10.18245 -9.26722,9.2564 45.66602,8.96875 26.53768,-0.13896 60.49314,-0.36396 75.45703,-0.5 L 376.91406,707.5 376.36523,710 c -1.50871,6.8644 -7.47593,29.25254 -8.94921,33.57812 -1.82859,5.36869 -2.35323,11.81786 -1.06641,13.10743 0.44713,0.44809 13.26485,1.05357 28.48242,1.3457 43.18087,0.82894 190.48945,1.04292 214.00586,0.31055 L 630,757.68164 v -3.44531 c 0,-3.41434 -2.17045,-15.61601 -6.14453,-34.55078 -1.13298,-5.39813 -1.75158,-10.12313 -1.375,-10.5 0.37658,-0.37686 33.37687,-0.82639 73.33203,-0.99805 39.95515,-0.17166 72.79689,-0.4629 72.98242,-0.64844 0.18554,-0.18553 -1.08583,-3.64664 -2.82422,-7.68945 -1.73839,-4.0428 -4.97615,-12.52464 -7.19531,-18.84961 -2.21916,-6.32497 -6.05595,-16.22503 -8.52734,-22 -2.47142,-5.77497 -6.49212,-15.67503 -8.93555,-22 -2.44343,-6.32497 -7.1938,-16.67503 -10.55469,-23 -3.38603,-6.37236 -8.59504,-18.62234 -11.68359,-27.47266 -4.57487,-13.10941 -6.02226,-16.19726 -8.07422,-17.23046 -1.98568,-0.99985 -45.9092,-1.25968 -213.5,-1.26368 z m 116.25977,6.18164 c 0.32307,0.0397 0.76325,0.18606 1.34765,0.38868 1.31601,0.45628 8.85004,0.84508 16.74219,0.86328 l 14.34961,0.0332 3.41797,11.5 c 1.88022,6.32497 3.69569,13.1875 4.0332,15.25 l 0.61328,3.75 h -6.47461 c -3.56104,0 -11.94653,0.29477 -18.63281,0.6543 L 617,607.30664 l -0.0371,-5.40234 c -0.0202,-2.97203 -0.70455,-8.5543 -1.52148,-12.4043 -0.81692,-3.85 -1.76409,-8.96379 -2.10547,-11.36328 -0.45478,-3.19658 -0.54541,-4.0411 0.42383,-3.92188 z m -53.41602,0.10743 c 0.22107,-0.22107 3.49686,0.0965 7.2793,0.70507 4.06341,0.65374 10.61374,0.82973 16.00976,0.42969 l 9.13281,-0.67773 3.11719,12.89062 c 1.71461,7.0895 3.11599,14.22585 3.11524,15.85938 V 606.5 l -17.41016,0.17188 c -9.5756,0.0944 -17.67638,-0.0924 -18,-0.41602 C 563.26428,605.93225 563,602.65113 563,598.96484 c 0,-3.68626 -0.68829,-10.648 -1.5293,-15.4707 -0.84101,-4.82267 -1.34802,-8.9508 -1.12695,-9.17187 z m -100.625,0.12304 c 0.79421,0.30477 8.10972,0.55469 16.25586,0.55469 11.87204,0 14.91875,0.28172 15.35547,1.41992 0.29974,0.78098 0.27995,7.98101 -0.0449,16 L 490.69336,607 h -17.99219 -17.99414 l 0.6543,-7.74219 c 1.49668,-17.70565 2.84569,-25.39261 4.35742,-24.8125 z M 509,575 h 15.5 c 8.52497,0 15.8375,0.009 16.25,0.0195 1.43104,0.0363 2.29199,5.54906 2.92383,18.73047 L 544.30859,607 H 526.6543 509 v -16 z m -102.66797,0.38281 16.42578,0.0352 16.42578,0.0332 -0.54101,3.52539 c -0.29696,1.93827 -0.85103,9.03597 -1.23242,15.77344 L 436.7168,607 h -18.4043 -18.40234 l 0.64257,-3.75 c 0.69595,-4.05225 2.61297,-13.42833 4.56055,-22.30859 z m 276.6543,0.0332 15.98633,0.084 4.56445,12.38086 c 2.51088,6.80998 4.80941,13.60178 5.10742,15.0918 l 0.54102,2.70898 -12.8418,0.6543 v 0.002 c -7.06372,0.36024 -15.36548,0.6562 -18.44727,0.6582 l -5.60351,0.004 -0.62695,-7.25 c -0.3446,-3.9875 -1.53538,-10.50777 -2.64649,-14.48828 C 667.90842,581.28088 667,577.42012 667,576.67969 c 0,-1.07564 3.21334,-1.33044 15.98633,-1.26367 z M 369.75,575.61133 c 10.91574,-0.0701 17.24533,0.25588 17.23633,0.88867 -0.008,0.55 -1.12187,5.50003 -2.47461,11 -1.35273,5.49997 -2.47183,12.02909 -2.48633,14.50977 l -0.0254,4.51171 -18.5,0.17969 c -10.17497,0.0997 -18.5,0.0641 -18.5,-0.0801 0,-1.04927 4.26412,-19.35562 5.70898,-24.50976 L 352.5,575.7207 Z m -54.5,0.0469 c 9.76259,-0.0866 17.75012,0.17416 17.75,0.58008 -1.2e-4,0.40593 -1.33452,4.90596 -2.96484,10 -1.63035,5.09408 -3.26635,11.84922 -3.63672,15.01172 L 325.72461,607 H 307.36328 289 l 0.0195,-3.25 c 0.0109,-1.7875 1.9234,-8.8034 4.25,-15.5918 L 297.5,575.81445 Z m 250.58789,40.32227 1.03125,3.25976 c 1.06934,3.38138 2.65173,14.68464 3.57031,25.50977 l 0.5293,6.25 h -18.03711 -18.03516 l 0.60938,-8.25 c 0.33527,-4.5375 0.19924,-12.075 -0.30274,-16.75 -0.50194,-4.675 -0.86649,-8.55003 -0.80859,-8.61133 0.0579,-0.0614 7.15731,-0.40335 15.77539,-0.75976 z m -101.875,0.36133 -0.23047,17.32422 -0.23242,17.32421 -18.39453,0.004 -18.39258,0.006 0.65625,-7.25 c 0.56255,-6.20798 3.55135,-25.99508 3.98438,-26.37891 0.0804,-0.0712 7.45151,-0.333 16.3789,-0.58007 z m -155.0293,0.0762 -0.61914,2.54101 c -0.34074,1.39739 -2.12597,6.72507 -3.96679,11.83985 C 302.12301,636.97987 301,641.89858 301,645.46484 v 5.36524 l -18.4707,-0.10352 -18.47266,-0.10547 0.54883,-2.56054 c 1.30309,-6.09251 4.57812,-16.12811 7.61719,-23.33985 l 3.27734,-7.77734 16.7168,-0.26367 z m 71.23047,0.082 h 16.20899 16.20898 l -0.33789,3 c -0.18551,1.65 -1.0223,6.98323 -1.85937,11.85156 -0.8371,4.86836 -1.40599,11.04529 -1.26368,13.72656 0.14232,2.68131 0.0604,4.99811 -0.18164,5.14844 -0.242,0.15017 -8.60705,0.15157 -18.58984,0.002 -16.57497,-0.24855 -18.1217,-0.42219 -17.82031,-2 0.18151,-0.95031 0.86193,-4.65352 1.51172,-8.22852 0.64977,-3.575 2.29319,-10.325 3.65234,-15 z m 103.10938,0 h 15.78906 15.78906 l 0.61133,3 c 0.33695,1.65 0.83074,6.6 1.09766,11 0.26692,4.4 0.68008,10.78063 0.91797,14.17969 l 0.43359,6.17969 -17.95703,-0.16602 L 482,650.52734 l 0.006,-7.51367 c 0.003,-4.13238 0.28936,-11.7887 0.63672,-17.01367 z m -122.57813,0.0293 c 0.10737,0.0157 -1.13062,4.9657 -2.75,11 -1.77352,6.60865 -2.94478,13.456 -2.94531,17.2207 -8.4e-4,5.88054 -0.13299,6.23689 -2.25,6.02734 -1.2375,-0.12249 -9.33753,-0.35891 -18,-0.52539 -14.1348,-0.27165 -15.74765,-0.4796 -15.73438,-2.02734 0.0213,-2.49024 2.68238,-13.43512 5.57032,-22.9082 l 2.49414,-8.1836 16.71094,-0.3164 c 9.19039,-0.17423 16.79693,-0.30281 16.90429,-0.28711 z m 257.73828,0.0117 2.24414,7.83203 c 1.23428,4.30825 2.70712,11.04982 3.27344,14.98047 0.56633,3.93062 1.31206,8.15898 1.65625,9.39648 l 0.625,2.25 H 607.61719 589 v -8.38867 c 0,-4.61424 -0.70116,-12.08938 -1.55859,-16.60938 -0.85743,-4.51996 -1.41993,-8.35176 -1.25,-8.51562 0.16993,-0.16385 7.49357,-0.44277 16.27539,-0.6211 z M 655.34766,617 h 16.3457 l 4.23828,14.75 c 2.33113,8.11247 4.45565,15.5375 4.7207,16.5 0.4366,1.58549 -0.49688,1.75 -9.93164,1.75 -5.72754,0 -14.54183,0.29221 -19.58789,0.65039 l -9.17578,0.65234 0.63086,-6.90234 c 0.48063,-5.26555 0.13052,-8.99213 -1.47851,-15.72851 C 639.94949,623.81596 639,619.20343 639,618.42188 639,617.25178 641.88731,617 655.34766,617 Z m 34.66015,0 h 15.83399 15.83203 l 4.07812,11.25 c 2.24281,6.18747 4.7463,13.54698 5.56446,16.35352 l 1.48828,5.10156 -11.15235,0.64258 c -6.13379,0.35346 -13.89795,0.64348 -17.2539,0.64648 l -6.10156,0.006 -0.60157,-7.75 c -0.57975,-7.47823 -1.14983,-9.60733 -5.625,-21 z M 508,661 h 15.89258 15.89453 l 1.12891,6.25 c 0.62112,3.4375 1.41298,11.31253 1.75976,17.5 l 0.63086,11.25 -15.4043,0.0137 c -8.4716,0.008 -16.41484,0.28555 -17.65234,0.61719 l -2.25,0.60156 v -18.11523 z m 135.74219,0.004 3.08398,10.74804 c 1.69616,5.91136 3.36688,12.99805 3.71289,15.74805 0.34601,2.75 0.83969,5.76733 1.09766,6.70508 0.42691,1.55184 -1.10643,1.73148 -17.08399,2 L 616.99805,696.5 v -6.62109 c 8.2e-4,-4.36241 -1.011,-10.14268 -2.96875,-16.94532 -1.63425,-5.67841 -2.87175,-10.39903 -2.75,-10.49023 0.12174,-0.0912 7.47526,-0.45252 16.34179,-0.80274 z m 51.13281,0.0996 1.47852,4.19921 c 0.81302,2.30883 2.58529,7.34727 3.93945,11.19727 1.35417,3.85 2.77569,9.025 3.1582,11.5 0.3825,2.475 0.91175,5.26733 1.17578,6.20508 0.43707,1.55234 -1.09158,1.7314 -17.07422,2 L 669.99805,696.5 v -6.55273 c 9.2e-4,-4.84318 -0.90922,-9.26166 -3.49024,-16.92579 -1.92087,-5.70384 -3.38337,-10.45506 -3.25,-10.55859 0.13337,-0.10353 7.30176,-0.45143 15.92969,-0.77344 z M 474.07617,661.22266 489.5,661.5 l 0.27344,17.25 0.27344,17.25 h -13.38282 c -7.3612,0 -15.47362,0.28697 -18.02539,0.63672 -5.46142,0.74858 -5.10382,2.80229 -3.21679,-18.47852 0.74818,-8.43785 1.78242,-15.76289 2.29687,-16.27734 0.52457,-0.52457 7.70792,-0.81353 16.35742,-0.6582 z m -156.10937,0.0723 16.94922,0.19336 -0.60352,2.50586 c -0.33162,1.37828 -1.92068,6.10586 -3.53125,10.50586 -1.61057,4.4 -3.18563,11.0375 -3.5,14.75 l -0.57227,6.75 -13.60351,0.0117 c -7.4827,0.006 -15.35882,0.3003 -17.50195,0.6543 l -3.89649,0.64257 0.69531,-6.14062 c 0.66087,-5.84127 5.80377,-24.75297 7.71485,-28.36719 0.79816,-1.50995 2.79627,-1.67785 17.84961,-1.50586 z m -36.25782,0.1875 c 0.48226,0.23409 -2.71518,11.54427 -5.09375,18.01758 -1.41462,3.85 -2.58215,9.1375 -2.59375,11.75 L 274,696 h -13.41797 c -7.37999,0 -14.13002,0.27357 -15,0.60742 -0.86999,0.33384 -1.58203,0.0961 -1.58203,-0.52734 0,-1.97903 3.94006,-16.26811 6.91602,-25.08008 l 2.87109,-8.5 13.85742,-0.55859 c 7.62095,-0.30773 13.94991,-0.51459 14.06445,-0.45899 z m 71.80664,0.0176 h 16.74024 c 11.70459,0 16.74127,0.33678 16.74219,1.12109 7.2e-4,0.61697 -1.12305,5.55811 -2.49805,10.97852 -1.375,5.42038 -2.5,12.67686 -2.5,16.12695 V 696 h -18.11719 -18.11523 l 0.7207,-6.75 c 0.39653,-3.7125 2.14061,-11.47503 3.875,-17.25 z m 68.63868,0 h 15.98437 l -0.69726,17 c -0.38318,9.34997 -0.90115,17.225 -1.15235,17.5 -0.67681,0.74093 -35.39941,0.60666 -35.86718,-0.13867 -0.84366,-1.3442 4.03351,-32.14793 5.36132,-33.86133 0.21311,-0.275 7.5797,-0.5 16.3711,-0.5 z m 136.84961,0 h 16.41211 c 9.02501,0 16.62607,0.225 16.89062,0.5 0.78383,0.8148 5.52883,25.11577 5.85156,29.9668 h 0.002 l 0.29687,4.46875 -18.22656,0.0312 -18.22656,0.0332 -0.004,-9 c -0.002,-4.95 -0.6765,-12.825 -1.5,-17.5 -0.8235,-4.675 -1.49709,-8.5 -1.49609,-8.5 z m 178.55078,0.0625 c 2.28905,-0.056 2.80043,0.6734 4.93945,7.02539 1.31265,3.89803 3.56158,9.74407 4.99805,12.99219 1.43647,3.24808 2.87439,7.82076 3.19531,10.16211 L 751.27148,696 H 737.7168 c -7.45477,0 -14.26479,0.27357 -15.13477,0.60742 C 721.2396,697.12256 721,696.23059 721,690.71289 c 0,-5.25675 -0.76582,-8.41143 -4,-16.47266 -2.2,-5.4835 -4,-10.48099 -4,-11.10546 0,-0.76704 3.5689,-1.1956 11,-1.32227 6.04997,-0.10312 12.14997,-0.2156 13.55469,-0.25 z m -133.55664,46.92773 3.0039,9.01368 C 609.6387,725.41835 613,739.92305 613,743.38477 c 0,0.93951 -25.85309,1.20071 -115.77148,1.16406 L 381.45703,744.5 l 5.56445,-18 5.56446,-18 105.70703,-0.004 z M 196,780.81445 l 4.95312,4.45313 c 2.91768,2.62325 7.54062,5.43616 11.25,6.84375 L 218.5,794.5 h 278 278 l 6.62305,-3.13867 c 3.64283,-1.72601 8.42229,-4.76351 10.62109,-6.75 2.1988,-1.98648 4.34198,-3.61133 4.76172,-3.61133 1.46975,0 -0.29198,13.55503 -2.52344,19.41797 -4.01347,10.54503 -13.98413,18.72267 -27.56836,22.60742 -6.80383,1.94576 -10.86678,1.97247 -270.41015,1.88867 C 289.81508,824.84752 231.41247,824.56087 227.5,823.58984 215.97947,820.7306 205.85833,813.46909 201.48633,804.92773 198.64279,799.37252 196,789.53795 196,784.51367 Z" /><path
       style="fill:#999999;fill-opacity:1;stroke:#999999;stroke-width:0.121981;stroke-opacity:1"
       d="m 698.33252,650.6941 c -0.004,-0.1612 -0.12848,-1.83727 -0.27707,-3.72461 l -0.27016,-3.43152 4.14995,-0.0746 c 2.28248,-0.041 9.72196,-0.10916 16.53219,-0.15137 l 12.38223,-0.0767 0.14893,0.53337 c 0.0819,0.29336 0.49884,1.72627 0.9265,3.18424 l 0.77757,2.65087 -0.37878,0.0573 c -0.20833,0.0315 -0.98258,0.0883 -1.72057,0.12617 -0.73798,0.0379 -3.757,0.20457 -6.70894,0.37038 -9.05439,0.50861 -13.41739,0.67652 -19.60839,0.75462 l -5.94656,0.075 z"
       id="path46009" /><path
       style="fill:#999999;fill-opacity:1;stroke:#999999;stroke-width:0.121981;stroke-opacity:1"
       d="m 642.38596,647.13803 c 0.19134,-2.23072 0.37244,-4.22673 0.40246,-4.43557 l 0.0546,-0.37971 4.60238,-0.0773 c 2.53131,-0.0425 10.62054,-0.11269 17.97607,-0.15596 13.04825,-0.0768 13.37536,-0.073 13.44242,0.15204 0.88665,2.97605 1.79274,6.37639 1.76434,6.62113 -0.0492,0.42426 -0.65093,0.71199 -1.81716,0.86897 -0.49686,0.0669 -4.69088,0.17318 -9.32005,0.23622 -4.62917,0.063 -8.99303,0.1456 -9.69747,0.18347 -0.70443,0.0379 -2.54329,0.12603 -4.08635,0.1959 -1.54305,0.0699 -5.11099,0.28873 -7.92874,0.48637 -2.81776,0.19764 -5.26205,0.35955 -5.43177,0.35981 l -0.30857,4.7e-4 z"
       id="path46011" /><path
       style="fill:#999999;fill-opacity:1;stroke:#999999;stroke-width:0.121981;stroke-opacity:1"
       d="m 589.04473,647.67327 v -3.27666 l 5.51962,-0.0773 c 11.72134,-0.16411 30.09874,-0.23447 30.09874,-0.11524 0,0.59176 0.94378,4.94363 1.41667,6.53237 0.0603,0.20264 -0.87688,0.21346 -18.48575,0.21346 h -18.54928 z"
       id="path46013" /><path
       style="fill:#999999;fill-opacity:1;stroke:#999999;stroke-width:0.121981;stroke-opacity:1"
       d="m 535.01478,650.43151 c 0.0132,-0.91024 0.42074,-5.92754 0.4869,-5.99369 0.0578,-0.0578 26.34258,-0.31649 32.32371,-0.31813 l 2.50591,-6.8e-4 0.21802,2.65308 c 0.1199,1.45919 0.24896,2.99615 0.28679,3.41546 l 0.0688,0.76237 h -17.9488 -17.9488 z"
       id="path46015" /><path
       style="fill:#999999;fill-opacity:1;stroke:#999999;stroke-width:0.121981;stroke-opacity:1"
       d="m 499.81586,650.6381 c -7.84946,-0.083 -15.05395,-0.15654 -16.00997,-0.16348 l -1.73822,-0.0126 v -3.0328 -3.03279 l 8.32518,-0.0775 c 4.57885,-0.0426 12.52558,-0.11252 17.65941,-0.15533 l 9.33424,-0.0778 0.21447,3.21862 c 0.11796,1.77025 0.2128,3.28725 0.21075,3.37111 -0.003,0.11603 -0.44839,0.14781 -1.86392,0.13298 -1.02311,-0.0107 -8.28249,-0.0874 -16.13194,-0.17035 z"
       id="path46017" /><path
       style="fill:#999999;fill-opacity:1;stroke:#999999;stroke-width:0.121981;stroke-opacity:1"
       d="m 426.81548,650.67547 c 0.0139,-0.7543 0.56407,-6.19041 0.6335,-6.25984 0.0673,-0.0673 10.83813,-0.17789 31.96083,-0.3283 l 4.11691,-0.0293 -6e-5,1.96303 c -3e-5,1.07967 -0.0359,2.63035 -0.0798,3.44596 l -0.0797,1.48291 H 445.0888 426.81045 Z"
       id="path46019" /><path
       style="fill:#999999;fill-opacity:1;stroke:#999999;stroke-width:0.121981;stroke-opacity:1"
       d="m 393.99761,650.19893 c -8.95876,-0.0834 -16.14238,-0.2704 -18.2337,-0.47456 -1.98218,-0.19351 -2.99927,-0.498 -3.17265,-0.94983 -0.0371,-0.0966 0.10736,-1.12129 0.32094,-2.27712 l 0.38833,-2.10151 7.14655,-0.0772 c 3.9306,-0.0425 11.9577,-0.11237 17.83799,-0.15535 l 10.69145,-0.0781 0.0881,1.0574 c 0.11296,1.35601 0.0225,4.79663 -0.12981,4.93931 -0.17628,0.1651 -5.38902,0.20594 -14.93718,0.117 z"
       id="path46021" /><path
       style="fill:#999999;fill-opacity:1;stroke:#999999;stroke-width:0.121981;stroke-opacity:1"
       d="m 349.34633,650.58019 c -1.17756,-0.0503 -4.77294,-0.15331 -7.98974,-0.229 -3.21679,-0.0757 -8.04437,-0.19183 -10.72794,-0.25808 -8.72987,-0.21549 -10.9454,-0.4797 -11.41733,-1.36151 -0.16909,-0.31594 -0.0765,-1.59878 0.23163,-3.20982 l 0.20998,-1.09782 4.75597,-0.0756 c 2.61579,-0.0416 10.56952,-0.11527 17.67496,-0.16379 l 12.91899,-0.0882 -0.0801,2.48142 c -0.0856,2.65119 -0.17317,3.25658 -0.54314,3.75278 -0.22562,0.3026 -0.28423,0.31489 -1.56335,0.32769 -0.73091,0.007 -2.29239,-0.0278 -3.46995,-0.0781 z"
       id="path46023" /><path
       style="fill:#999999;fill-opacity:1;stroke:#999999;stroke-width:0.121981;stroke-opacity:1"
       d="m 287.81343,650.6993 c -6.70894,-0.044 -14.78344,-0.088 -17.94333,-0.0977 l -5.74525,-0.0176 0.47335,-2.16515 c 0.26035,-1.19084 0.58546,-2.58315 0.72247,-3.09402 l 0.24911,-0.92885 5.08378,-0.0769 c 2.79608,-0.0423 10.75131,-0.11221 17.67828,-0.15536 l 12.59451,-0.0785 v 3.37135 3.37135 l -0.45743,-0.0243 c -0.25158,-0.0134 -5.94656,-0.0603 -12.65549,-0.10437 z"
       id="path46025" /><path
       style="fill:#999999;fill-opacity:1;stroke:#999999;stroke-width:0.121981;stroke-opacity:1"
       d="m 244.27736,696.46092 c -0.18992,-0.20986 -0.21467,-0.36612 -0.14795,-0.93388 0.0949,-0.80737 1.03845,-4.95747 1.15442,-5.07753 0.0442,-0.0457 4.00505,-0.11458 8.80194,-0.15299 4.79689,-0.0384 11.23289,-0.10114 14.30223,-0.13942 l 5.58062,-0.0696 v 2.92307 2.92306 l -11.67965,0.0645 c -11.12485,0.0615 -14.47661,0.15851 -16.19294,0.4688 -1.46034,0.26402 -1.57461,0.26364 -1.81867,-0.006 z"
       id="path46027" /><path
       style="fill:#999999;fill-opacity:1;stroke:#999999;stroke-width:0.121981;stroke-opacity:1"
       d="m 291.82609,696.72318 c 0.0384,-0.25159 0.21393,-1.74738 0.39017,-3.32398 0.17624,-1.5766 0.35553,-2.90492 0.39842,-2.95184 0.0802,-0.0877 34.39377,-0.40406 34.47994,-0.31789 0.0264,0.0264 -0.0587,1.28062 -0.18902,2.78718 -0.13035,1.50656 -0.23798,2.80124 -0.23917,2.87707 -0.002,0.10107 -3.11974,0.15536 -11.68181,0.20339 -13.98083,0.0784 -16.99648,0.20508 -21.02776,0.88319 -2.33433,0.39265 -2.21592,0.40138 -2.13077,-0.15712 z"
       id="path46029" /><path
       style="fill:#999999;fill-opacity:1;stroke:#999999;stroke-width:0.121981;stroke-opacity:1"
       d="m 345.87634,695.50337 c 0.0352,-0.25159 0.17466,-1.49738 0.30993,-2.76844 0.13528,-1.27105 0.2623,-2.32735 0.28227,-2.34732 0.0441,-0.0441 26.44255,-0.27719 31.70208,-0.27993 l 3.7509,-0.002 v 2.92754 2.92754 h -18.05458 -18.05458 z"
       id="path46031" /><path
       style="fill:#999999;fill-opacity:1;stroke:#999999;stroke-width:0.121981;stroke-opacity:1"
       d="m 409.23126,696.31803 c -4.26977,-0.0869 -8.19175,-0.28393 -8.57431,-0.43073 -0.35651,-0.13681 -0.3564,-0.799 7.6e-4,-4.63645 l 0.0807,-0.86756 5.56466,-0.0773 c 3.06056,-0.0425 11.17841,-0.11281 18.03965,-0.15616 l 12.475,-0.0788 -0.0733,0.90173 c -0.31218,3.83933 -0.43109,4.81158 -0.60428,4.94078 -0.2778,0.20724 -1.42838,0.28981 -5.77158,0.41416 -4.52764,0.12964 -14.51911,0.12509 -21.13733,-0.01 z"
       id="path46033" /><path
       style="fill:#999999;fill-opacity:1;stroke:#999999;stroke-width:0.121981;stroke-opacity:1"
       d="m 455.23794,696.89441 c -0.26786,-0.0896 -0.51181,-0.29598 -0.67089,-0.56767 -0.2321,-0.39638 -0.24966,-0.62076 -0.24545,-3.13538 0.002,-1.48965 0.0316,-2.73551 0.0647,-2.76859 0.0688,-0.0688 35.35623,-0.36812 35.4225,-0.30044 0.0239,0.0244 0.0834,1.34167 0.13213,2.92724 l 0.0887,2.88285 -11.87921,0.0644 c -13.29999,0.0721 -17.29437,0.21887 -20.7228,0.76138 -0.63735,0.10085 -1.29605,0.20442 -1.46377,0.23015 -0.16772,0.0257 -0.49436,-0.0165 -0.72586,-0.0939 z"
       id="path46035" /><path
       style="fill:#999999;fill-opacity:1;stroke:#999999;stroke-width:0.121981;stroke-opacity:1"
       d="m 508.04955,693.76737 v -3.38538 l 4.48279,-0.0766 c 2.46554,-0.0421 10.30637,-0.11169 17.42408,-0.1546 l 12.94128,-0.078 0.0775,1.1448 c 0.0427,0.62964 0.11449,1.95444 0.15965,2.94401 l 0.0821,1.79922 -10.29537,0.002 c -15.34387,0.003 -21.23711,0.21495 -23.60468,0.85011 l -1.26739,0.34001 z"
       id="path46037" /><path
       style="fill:#999999;fill-opacity:1;stroke:#999999;stroke-width:0.121981;stroke-opacity:1"
       d="m 562.087,693.41608 v -3.03264 l 4.23882,-0.0771 c 2.33136,-0.0424 10.39321,-0.11261 17.91523,-0.15595 l 13.6764,-0.0788 0.0912,0.96244 c 0.0502,0.52935 0.15337,1.92818 0.22939,3.10853 l 0.13822,2.14608 -3.90338,0.0799 c -2.14686,0.0439 -10.31194,0.0799 -18.14463,0.0801 l -14.24124,2e-4 z"
       id="path46039" /><path
       style="fill:#999999;fill-opacity:1;stroke:#999999;stroke-width:0.121981;stroke-opacity:1"
       d="m 617.10028,693.42843 v -3.04794 l 5.45864,-0.076 c 3.00225,-0.0418 10.59749,-0.11064 16.87831,-0.15304 l 11.41968,-0.0771 0.0873,0.71705 c 0.048,0.39437 0.21991,1.38856 0.38195,2.2093 0.16204,0.82075 0.29462,1.57631 0.29462,1.67903 0,0.26239 -0.67493,0.64268 -1.39969,0.78865 -1.73302,0.34903 -6.51198,0.53272 -19.03208,0.73153 -4.22663,0.0671 -9.12568,0.15677 -10.88677,0.19922 l -3.202,0.0772 z"
       id="path46041" /><path
       style="fill:#999999;fill-opacity:1;stroke:#999999;stroke-width:0.121981;stroke-opacity:1"
       d="m 670.0399,693.41245 v -3.06276 l 2.71407,-0.002 c 1.49274,-9.2e-4 9.04885,-0.0564 16.79136,-0.1233 7.7425,-0.0669 14.10039,-0.0985 14.12865,-0.0703 0.0282,0.0282 0.23646,0.97002 0.4627,2.09282 0.22623,1.1228 0.4415,2.12006 0.47837,2.21614 0.12743,0.33208 -0.55373,0.83467 -1.33541,0.98531 -1.93281,0.37248 -6.44165,0.54997 -19.08998,0.75147 -4.19308,0.0668 -9.09213,0.15601 -10.88677,0.19824 l -3.26299,0.0768 z"
       id="path46043" /><path
       style="fill:#999999;fill-opacity:1;stroke:#999999;stroke-width:0.121981;stroke-opacity:1"
       d="m 721.73471,696.54605 c -0.11439,-0.0871 -0.26899,-0.32244 -0.34355,-0.52303 -0.15377,-0.41362 -0.35258,-2.98689 -0.35903,-4.64689 l -0.004,-1.10823 10.63249,-0.0811 c 16.88147,-0.12874 18.60256,-0.11812 18.69215,0.11534 0.0803,0.20917 0.80352,5.09417 0.80419,5.43165 3.7e-4,0.18343 -0.96875,0.20525 -11.74024,0.26435 -12.49933,0.0686 -15.53438,0.18135 -17.22978,0.64019 -0.13417,0.0363 -0.33754,-0.005 -0.45193,-0.0923 z"
       id="path46045" /><path
       style="fill:#999999;fill-opacity:1;stroke:#999999;stroke-width:0.186444;stroke-opacity:1"
       d="m 381.63109,744.21325 c 0.0478,-0.14744 0.5436,-2.02224 1.10186,-4.16621 l 1.01504,-3.89814 61.58125,0.14733 c 33.86967,0.0811 85.1943,0.2029 114.05472,0.2708 34.61868,0.0814 52.52966,0.19203 52.63859,0.32498 0.16409,0.2003 0.60807,2.99911 0.81873,5.16113 0.13422,1.37778 0.28822,1.30403 -3.32567,1.59253 -7.11648,0.56808 -20.81715,0.65072 -123.02661,0.74195 -87.2851,0.0779 -104.93014,0.0486 -104.85791,-0.17437 z"
       id="path46053" /><path
       style="fill:#999999;fill-opacity:1;stroke:#999999;stroke-width:0.121981;stroke-opacity:1"
       d="m 672.30617,606.29289 c -0.0404,-0.36234 -0.15485,-1.64683 -0.25426,-2.85444 -0.0994,-1.20761 -0.20795,-2.39375 -0.2412,-2.63587 l -0.0605,-0.44021 10.94646,-0.0786 c 6.02055,-0.0432 14.11245,-0.11355 17.982,-0.15622 l 7.03554,-0.0776 0.37335,1.20634 c 0.45537,1.47137 1.02335,4.21103 0.89592,4.32155 -0.0847,0.0735 -10.21956,0.60081 -20.03661,1.04254 -2.18041,0.0981 -6.80002,0.2128 -10.2658,0.25486 l -6.30143,0.0765 z"
       id="path46055" /><path
       style="fill:#999999;fill-opacity:1;stroke:#999999;stroke-width:0.121981;stroke-opacity:1"
       d="m 617.05879,604.98983 c -0.0439,-1.2558 -0.08,-2.81176 -0.0801,-3.4577 l -3.5e-4,-1.17443 12.6555,-0.0839 c 6.96052,-0.0461 15.09656,-0.094 18.08008,-0.10637 l 5.42458,-0.0225 0.1527,0.67089 c 0.084,0.36899 0.29361,1.52171 0.46585,2.5616 0.17223,1.03988 0.34096,2.03343 0.37495,2.20787 l 0.0618,0.31718 -6.56214,0.0746 c -5.65598,0.0643 -11.9276,0.25965 -16.3206,0.50833 -0.67089,0.038 -3.82714,0.204 -7.01388,0.36893 -3.18675,0.16494 -6.10109,0.32663 -6.47632,0.3593 l -0.68224,0.0594 z"
       id="path46057" /><path
       style="fill:#999999;fill-opacity:1;stroke:#999999;stroke-width:0.121981;stroke-opacity:1"
       d="m 568.79593,606.55435 c -3.21056,-0.095 -4.86501,-0.21178 -5.10533,-0.3603 -0.0761,-0.047 -0.19117,-0.35692 -0.25577,-0.68866 -0.1404,-0.7211 -0.43544,-5.03267 -0.35022,-5.1179 0.0724,-0.0724 31.7368,-0.33472 33.88886,-0.28075 l 1.52476,0.0382 0.20554,1.34179 c 0.11722,0.76523 0.20895,2.10762 0.21347,3.12408 l 0.008,1.7823 -4.11685,0.0773 c -6.93941,0.13031 -22.72388,0.18123 -26.01238,0.0839 z"
       id="path46059" /><path
       style="fill:#999999;fill-opacity:1;stroke:#999999;stroke-width:0.121981;stroke-opacity:1"
       d="m 509.0254,603.62142 v -3.29348 l 3.81189,-0.003 c 2.09655,-10e-4 9.92832,-0.0557 17.40394,-0.12063 7.47562,-0.0649 13.60795,-0.10215 13.62741,-0.0827 0.0195,0.0195 0.091,1.18528 0.15903,2.59073 0.068,1.40545 0.1525,2.92588 0.18776,3.37874 l 0.0641,0.82337 H 526.65246 509.0254 Z"
       id="path46061" /><path
       style="fill:#999999;fill-opacity:1;stroke:#999999;stroke-width:0.121981;stroke-opacity:1"
       d="m 454.80316,606.45747 c 0.0341,-0.25159 0.14542,-1.50036 0.2473,-2.77506 0.10188,-1.2747 0.21405,-2.54327 0.24926,-2.81904 l 0.064,-0.50141 13.19949,-0.0785 c 7.25972,-0.0431 15.25212,-0.11326 17.76089,-0.15581 l 4.5614,-0.0774 -0.0819,2.79188 c -0.045,1.53553 -0.11418,3.08006 -0.15366,3.43228 l -0.0718,0.6404 H 472.6596 454.74105 Z"
       id="path46063" /><path
       style="fill:#999999;fill-opacity:1;stroke:#999999;stroke-width:0.121981;stroke-opacity:1"
       d="m 400.03075,606.64044 c 0.0334,-0.15095 0.2878,-1.59185 0.5653,-3.20199 0.27751,-1.61015 0.53941,-2.96238 0.58199,-3.00496 0.0749,-0.0749 35.76021,-0.38673 35.83379,-0.31315 0.02,0.02 -0.0431,1.37862 -0.14031,3.01906 -0.0972,1.64044 -0.17764,3.16102 -0.17871,3.37906 l -0.002,0.39644 h -18.36042 -18.36041 z"
       id="path46065" /><path
       style="fill:#999999;fill-opacity:1;stroke:#999999;stroke-width:0.121981;stroke-opacity:1"
       d="m 345.28534,606.58464 c -0.26508,-0.0683 -0.28041,0.0478 0.42327,-3.20718 0.26832,-1.24116 0.5178,-2.42737 0.5544,-2.63603 l 0.0665,-0.37939 12.33735,-0.0785 c 6.78554,-0.0432 14.81386,-0.11319 17.84069,-0.1556 l 5.50335,-0.0771 -0.0601,3.15756 c -0.0331,1.73666 -0.0791,3.17896 -0.10241,3.2051 -0.14255,0.16022 -35.95524,0.32783 -36.56307,0.17112 z"
       id="path46067" /><path
       style="fill:#999999;fill-opacity:1;stroke:#999999;stroke-width:0.121981;stroke-opacity:1"
       d="m 289.09422,605.07385 c 0,-1.66222 0.20776,-3.3474 0.55659,-4.5147 0.053,-0.17734 1.24152,-0.20316 12.65041,-0.27487 6.92556,-0.0435 15.21428,-0.11427 18.41938,-0.15722 4.95338,-0.0664 5.81844,-0.0526 5.76727,0.0919 -0.0492,0.13889 -0.79944,6.34777 -0.79944,6.61593 0,0.044 -8.2337,0.08 -18.2971,0.08 h -18.29711 z"
       id="path46069" /><path
       style="fill:#2b874c;fill-opacity:1;stroke:#2c874c;stroke-width:0.425532;stroke-opacity:1"
       d="m 345.53191,824.47894 c -57.69148,-0.16917 -107.67021,-0.45179 -111.06382,-0.62806 -3.95628,-0.20549 -7.20137,-0.61694 -9.04403,-1.14669 -8.80362,-2.531 -17.75519,-8.73031 -22.1155,-15.31586 -3.32348,-5.01958 -6.54071,-15.23195 -7.01828,-22.27798 l -0.25931,-3.82583 2.65316,2.33646 c 5.62617,4.95459 9.5881,7.34189 16.27821,9.80861 l 3.39359,1.25126 h 278.27539 278.2754 l 5.19345,-2.60341 c 5.46136,-2.73768 9.62204,-5.39798 13.51383,-8.64058 1.28557,-1.07112 2.48238,-1.9475 2.65957,-1.9475 1.01434,0 0.20213,8.4595 -1.45042,15.10638 -3.03383,12.20267 -13.30298,21.74391 -27.98081,25.99737 -3.0203,0.87525 -5.17413,1.12803 -12.58357,1.47686 -11.69741,0.55071 -271.67594,0.81084 -408.72686,0.40897 z"
       id="path46071" /><path
       id="path46073"
       clip-path="url(#clipPath50157)"
       style="fill:#63cd89;fill-opacity:1;stroke:#63cd89;stroke-width:0.425532;stroke-opacity:1"
       d="m 511.49023,555.37891 c -110.46275,0.0355 -194.25114,0.23352 -204.68164,0.48437 -16.77661,0.40348 -17.8627,0.47829 -21.70312,1.49414 -8.76464,2.31837 -15.97175,6.41188 -21.25977,12.07422 -4.51997,4.83997 -5.34277,6.72282 -17.86328,40.86719 -3.27849,8.94073 -7.33117,19.66445 -9.00781,23.83008 -1.67665,4.1656 -3.38694,8.53095 -3.80078,9.70117 -0.41385,1.17021 -6.82731,19.64961 -14.25,41.06445 -22.69734,65.4829 -22.65895,65.35084 -20.67969,73.17774 2.25385,8.91275 9.6019,16.405 19.78711,20.17578 3.38579,1.25348 3.67201,1.28654 13.66992,1.54101 30.51141,0.77658 464.1738,0.13693 521.75,-0.76953 l 18.76953,-0.29687 4.48438,-2.22852 c 5.19609,-2.58298 10.57231,-6.42058 12.74219,-9.0957 3.64214,-4.49036 6.55614,-11.80956 6.16601,-15.48438 -0.32008,-3.01502 -3.5853,-13.55004 -11.3457,-36.5957 -14.78439,-43.9045 -21.86271,-64.39315 -24.94531,-72.2207 -4.15758,-10.557 -9.67169,-25.38273 -16.98047,-45.65039 -7.3431,-20.3627 -7.36725,-20.42058 -10.20508,-24.68555 -4.38944,-6.59691 -13.31788,-14.15657 -18.5586,-15.71289 -5.79661,-1.72147 -7.16459,-1.73262 -202.08789,-1.66992 z m -15.27929,12.72461 c 102.25488,0.0237 204.70498,0.17859 208.56445,0.44336 5.70852,0.39159 6.35978,0.52117 7.34766,1.44921 1.48983,1.39961 2.78682,4.28684 6.39257,14.23438 4.52183,12.47474 9.23551,23.64758 12.58008,29.8125 2.92217,5.38626 7.6549,15.97751 12.54883,28.08398 2.64906,6.55319 6.52846,16.12841 8.61914,21.27735 2.09072,5.1489 5.18551,13.19221 6.87891,17.87304 1.69345,4.68085 4.59121,12.2932 6.4375,16.91797 1.84634,4.6248 3.35547,8.6716 3.35547,8.99219 0,0.6443 -12.856,0.8439 -88.93555,1.375 -21.64888,0.15112 -43.38199,0.39265 -48.29688,0.53711 l -8.9375,0.26172 0.084,2.13476 c 0.0461,1.17398 1.42171,8.92967 3.05664,17.23438 3.33622,16.94615 4.30664,22.96561 4.30664,26.71484 v 2.57031 l -7.55273,0.24805 c -12.315,0.40586 -177.9699,0.59259 -207.97852,0.23438 -25.68892,-0.30665 -46.63497,-0.97989 -48.10742,-1.54493 -0.34311,-0.13163 -0.74488,-0.7201 -0.89258,-1.30859 -0.48277,-1.9235 0.19825,-7.91213 1.29492,-11.38867 2.71169,-8.59621 9.79884,-35.91991 9.41602,-36.30274 -0.11114,-0.1111 -31.08539,0.002 -68.83008,0.25391 -37.7447,0.2516 -70.95198,0.29921 -73.79492,0.10547 -2.84295,-0.19375 -5.71515,-0.61315 -6.38281,-0.93164 -1.72864,-0.82456 -1.80072,-2.61884 -0.23047,-5.75 1.77813,-3.54569 4.49493,-10.09554 14.97461,-36.09961 9.64613,-23.93572 11.81274,-28.9162 21.47656,-49.36133 6.37263,-13.48218 7.37833,-15.75503 8.77148,-19.82812 1.18109,-3.45314 6.06839,-14.65913 9.56836,-21.93946 l 2.69141,-5.5957 4.16992,-0.35547 c 3.08713,-0.26314 105.14942,-0.3714 207.4043,-0.34765 z" /><path
       style="fill:#6ce490;fill-opacity:1;stroke:#6ce490;stroke-width:0.444444;stroke-opacity:1"
       d="m 304.22222,539.7729 c -7.07538,-0.25589 -8.43662,-0.43195 -11.77778,-1.52336 -8.4924,-2.77408 -15.29889,-7.0029 -20.94229,-13.01127 -4.87998,-5.19559 -7.68546,-9.99463 -9.94744,-17.01605 -1.16458,-3.61497 -1.23583,-4.37156 -1.65333,-17.55555 -0.56846,-17.95172 -0.56773,-213.53059 8.7e-4,-229.33334 0.40419,-11.23335 0.50967,-12.24135 1.65108,-15.77777 4.25368,-13.17912 13.40723,-23.80639 25.28274,-29.35328 7.83177,-3.6581 10.6203,-3.80412 84.94171,-4.44797 70.80299,-0.61337 303.80617,-0.30241 314.44444,0.41965 11.39579,0.77348 14.484,1.43529 20.18796,4.32636 13.8636,7.02679 19.88982,14.08293 24.98831,29.25895 l 1.93484,5.75927 V 378.81312 506.1077 l -2.47711,4.76761 c -3.13795,6.0395 -7.00915,11.19865 -12.03938,16.04485 -5.94577,5.72826 -10.84311,8.86239 -18.42172,11.78925 l -3.91716,1.51281 -192.12787,-0.08 c -105.67033,-0.044 -195.72787,-0.2102 -200.12787,-0.36933 z m 326.22222,-11.11522 c 28.11112,-0.22184 53.71112,-0.61379 56.88889,-0.87099 12.25144,-0.99161 14.3196,-1.83293 21.00169,-8.54341 5.24071,-5.26299 6.92174,-7.60916 10.19685,-14.23135 l 2.35702,-4.76585 V 377.47844 254.7108 l -1.62013,-4.24429 c -2.40774,-6.30759 -5.17627,-10.7287 -9.68654,-15.46866 -3.56333,-3.74482 -4.43466,-4.39976 -8.44443,-6.34751 -2.45912,-1.19451 -5.37112,-2.38484 -6.47112,-2.64518 -4.32819,-1.02436 -40.70226,-1.29873 -171.55556,-1.29402 -157.05054,0.006 -219.75283,0.41735 -223.55555,1.46788 -3.57166,0.9867 -10.86674,4.75902 -14.43965,7.46681 -3.77545,2.86128 -6.37325,6.47703 -10.15175,14.1297 l -2.74194,5.55331 v 122.89114 c 0,95.76718 0.12113,123.4797 0.54878,125.5578 0.30183,1.46666 1.45934,4.51426 2.57225,6.77244 1.58956,3.22534 2.84053,4.96436 5.83364,8.10961 4.18813,4.40101 7.56691,6.83298 13.87369,9.98598 l 4.16169,2.08059 62.50498,0.37663 c 67.13154,0.4045 186.0001,0.20751 268.72719,-0.44535 z"
       id="path46075" /><path
       style="fill:#6ce490;fill-opacity:1;stroke:#6ce490;stroke-width:0.0785674;stroke-opacity:1"
       d="m 548.872,420.9288 c 0,-0.0411 0.15825,-0.71501 0.35166,-1.4976 0.47712,-1.9305 0.69425,-2.98224 1.0588,-5.12876 0.81801,-4.81651 1.77377,-12.28328 2.27997,-17.81195 0.36986,-4.03957 0.40832,-4.81891 0.45074,-9.13347 l 0.0423,-4.30156 h 15.46809 15.46808 v 1.09566 c 0,2.02583 -0.27251,4.34102 -1.05937,9.00025 -1.28573,7.61313 -3.44557,17.78924 -4.47739,21.09535 -0.68447,2.19312 -1.9562,6.10255 -2.00072,6.15042 -0.0555,0.0596 -2.45368,0.11675 -18.82993,0.4486 -9.02598,0.1829 -8.75222,0.18031 -8.75222,0.0831 z"
       id="path46215" /><path
       style="fill:#6ce490;fill-opacity:1;stroke:#6ce490;stroke-width:0.0785674;stroke-opacity:1"
       d="m 589.33422,418.8841 c 0,-0.0427 0.56771,-1.99627 1.26159,-4.34131 0.69387,-2.34505 1.41758,-4.88244 1.60823,-5.63865 1.18001,-4.68041 2.18483,-10.83779 2.58992,-15.87062 0.44194,-5.49056 0.8019,-8.40158 1.19983,-9.70308 l 0.14413,-0.4714 0.38903,0.007 c 0.21396,0.004 1.75021,0.0479 3.41387,0.0979 1.66367,0.05 5.27787,0.091 8.03156,0.0912 l 5.0067,2.8e-4 -0.0383,0.21606 c -0.0211,0.11883 -0.1974,1.25904 -0.3918,2.5338 -0.42308,2.77421 -0.74099,4.37672 -1.41635,7.13952 -1.35732,5.55256 -3.45364,12.45198 -5.21662,17.169 -0.76684,2.05176 -1.12516,2.89531 -2.65666,6.2542 l -1.16426,2.55344 -6.38041,0.0201 c -4.16143,0.0131 -6.38042,-0.007 -6.38042,-0.0575 z"
       id="path46219" /><path
       style="fill:#6ce490;fill-opacity:1;stroke:#6ce490;stroke-width:0.0785674;stroke-opacity:1"
       d="m 524.12326,421.69903 c -1.89919,-0.0601 -9.00268,-0.31818 -18.48299,-0.67161 l -3.67302,-0.13693 6.6e-4,-0.2774 c 3.6e-4,-0.15256 0.12381,-8.28538 0.27432,-18.07291 0.15052,-9.78754 0.27397,-18.17559 0.27433,-18.64012 l 6.6e-4,-0.8446 10.50839,-10e-4 c 15.89037,-0.002 24.09222,-0.18945 26.26989,-0.60061 0.3721,-0.0703 0.76663,-0.10514 0.87673,-0.0775 0.27443,0.0689 0.49379,0.5579 0.62191,1.38648 0.13776,0.89093 0.139,7.03728 0.002,8.6817 -0.0541,0.64819 -0.15216,1.83259 -0.21792,2.63201 -0.76687,9.32288 -2.76503,24.09125 -3.44417,25.45585 -0.33391,0.67093 -1.23393,1.01536 -3.06129,1.17152 -1.13813,0.0973 -6.81093,0.0946 -9.94925,-0.005 z"
       id="path46221" /><path
       style="fill:#6ce490;fill-opacity:1;stroke:#6ce490;stroke-width:0.0785674;stroke-opacity:1"
       d="m 475.45074,421.23263 c -7.95255,-0.12268 -19.32822,-0.3217 -19.34511,-0.33844 -0.0916,-0.0908 -1.36223,-5.11442 -1.6317,-6.45105 -1.26339,-6.26673 -2.92486,-18.82153 -3.33739,-25.2188 -0.0445,-0.69066 -0.081,-2.36119 -0.081,-3.71231 v -2.45657 h 20.07398 c 16.00692,0 20.07393,0.0199 20.07375,0.0982 -0.004,1.58914 -0.65863,24.50404 -0.82808,28.97173 -0.23087,6.08692 -0.42347,9.01223 -0.60076,9.12466 -0.12212,0.0774 -8.86338,0.0668 -14.32371,-0.0174 z"
       id="path46223" /><path
       style="fill:#6ce490;fill-opacity:1;stroke:#6ce490;stroke-width:0.0785674;stroke-opacity:1"
       d="m 416.59353,420.16475 c -0.0687,-0.16525 -0.45858,-1.09359 -0.8664,-2.06297 -0.40782,-0.96939 -0.89548,-2.25986 -1.08368,-2.86771 -1.72297,-5.56481 -4.29412,-17.93764 -5.27464,-25.38253 -0.15627,-1.18652 -0.21255,-2.08731 -0.27431,-4.39064 -0.0427,-1.59382 -0.0677,-2.9061 -0.0555,-2.91618 0.0232,-0.0191 22.57561,-0.20566 27.16676,-0.22472 l 2.63148,-0.0109 0.13537,1.64991 c 1.09227,13.31307 2.81144,29.86792 3.54935,34.17868 0.2044,1.19403 0.17176,1.45743 -0.20933,1.68918 -0.31189,0.18968 -1.0986,0.36341 -2.17798,0.48098 -0.56398,0.0614 -4.39844,0.10054 -12.1206,0.12362 l -11.29564,0.0338 z"
       id="path46225" /><path
       style="fill:#6ce490;fill-opacity:1;stroke:#6ce490;stroke-width:0.0785674;stroke-opacity:1"
       d="m 399.75103,418.75134 c -2.44418,-0.24124 -10.13886,-1.25139 -10.21586,-1.34112 -0.0852,-0.0993 -3.32659,-9.35923 -4.32512,-12.35588 -1.92891,-5.78885 -2.99972,-10.07281 -4.66418,-18.65977 -0.32667,-1.68527 -0.60828,-3.126 -0.62581,-3.20162 -0.0302,-0.13033 0.43782,-0.13749 8.98668,-0.13749 h 9.01856 l 0.0426,4.30156 c 0.0477,4.81502 0.11237,5.80205 0.64986,9.91914 0.83269,6.37828 2.29134,13.75472 3.72988,18.86215 0.56273,1.99792 0.52356,2.36006 -0.27889,2.57879 -0.28854,0.0786 -1.66225,0.0989 -2.31774,0.0342 z"
       id="path46227" /><path
       style="fill:#6ce490;fill-opacity:1;stroke:#6ce490;stroke-width:0.0785674;stroke-opacity:1"
       d="m 420.16492,458.87466 c -0.11554,-0.0349 -0.46163,-0.19162 -0.7691,-0.34831 -2.98446,-1.52096 -8.95452,-6.78009 -12.80633,-11.28131 -3.67419,-4.29365 -10.10073,-13.77755 -10.42094,-15.3786 l -0.0486,-0.24289 0.46024,-0.0589 c 0.25313,-0.0324 1.39252,-0.0193 2.53197,0.0291 2.91414,0.12375 9.85066,0.65003 9.95754,0.75549 0.0479,0.0472 0.48642,1.09349 0.97458,2.32503 1.4652,3.69647 3.52358,8.2417 6.97376,15.39922 2.4599,5.10313 3.94617,8.32496 3.94617,8.55423 0,0.1392 -0.24365,0.32401 -0.41809,0.31713 -0.0941,-0.004 -0.2657,-0.0353 -0.38123,-0.0702 z"
       id="path46229" /><path
       style="fill:#6ce490;fill-opacity:1;stroke:#6ce490;stroke-width:0.0785674;stroke-opacity:1"
       d="m 468.57609,484.82536 c -2.07436,-0.33874 -4.40309,-1.14954 -7.04138,-2.45161 -3.41401,-1.68492 -6.3793,-3.64364 -8.98378,-5.93423 -1.01141,-0.88951 -2.62976,-2.40933 -3.34164,-3.1382 -2.68999,-2.75416 -4.68895,-4.90766 -6.64695,-7.16082 -5.43966,-6.25964 -10.2036,-12.59252 -12.73664,-16.93127 -3.33685,-5.71559 -7.49765,-14.71414 -7.55321,-16.33534 -0.0111,-0.32327 0.004,-0.35103 0.22381,-0.40819 0.76685,-0.19954 23.25642,-1.64483 23.37883,-1.50244 0.0272,0.0317 0.25175,0.97685 0.49891,2.10036 2.93365,13.33537 7.12099,24.15311 13.71398,35.42919 2.50057,4.27677 5.29939,8.51231 9.26987,14.02838 0.57518,0.79908 1.12041,1.60648 1.21162,1.79423 0.16345,0.33643 0.16366,0.34296 0.014,0.45239 -0.11067,0.0809 -0.3768,0.10812 -0.98142,0.10032 -0.45627,-0.006 -0.91798,-0.0251 -1.02601,-0.0428 z"
       id="path46231" /><path
       style="fill:#6ce490;fill-opacity:1;stroke:#6ce490;stroke-width:0.0785674;stroke-opacity:1"
       d="m 487.73599,484.11185 c -1.86459,-1.80933 -5.01527,-5.01411 -6.72297,-6.83841 -5.26252,-5.62186 -7.68077,-9.17672 -11.42154,-16.78979 -2.52142,-5.13149 -4.99365,-10.90613 -6.71043,-15.6742 -0.60076,-1.66851 -3.49734,-11.19167 -3.49734,-11.49829 0,-0.34055 0.1191,-0.48681 0.54592,-0.67043 1.14178,-0.49118 3.06093,-0.55577 18.21972,-0.6132 l 12.99093,-0.0492 -0.0508,1.36761 c -0.0279,0.75218 -0.19033,6.72394 -0.3609,13.27057 -0.61497,23.60356 -1.07275,38.22255 -1.21721,38.87123 -0.0216,0.0972 -0.07,0.17678 -0.10734,0.17678 -0.0374,0 -0.78802,-0.6987 -1.66807,-1.55266 z"
       id="path46233" /><path
       style="fill:#6ce490;fill-opacity:1;stroke:#6ce490;stroke-width:0.0785674;stroke-opacity:1"
       d="m 502.76825,485.8785 c -0.56567,-0.68801 -0.79301,-5.9427 -0.64662,-14.94538 0.11025,-6.77973 0.25815,-11.93562 0.66934,-23.33453 0.10444,-2.89521 0.26413,-7.43837 0.35488,-10.09591 0.0907,-2.65754 0.18304,-4.98216 0.20511,-5.16581 l 0.0401,-0.33391 h 15.3944 c 8.46692,0 15.3944,0.0287 15.3944,0.0639 0,0.34296 -0.76954,3.74958 -1.02487,4.53693 -2.12361,6.54846 -9.82934,23.5529 -12.93982,28.55466 -3.035,4.88039 -10.57322,14.23479 -15.29894,18.98489 -1.58185,1.59001 -1.99378,1.92278 -2.14801,1.7352 z"
       id="path46235" /><path
       style="fill:#6ce490;fill-opacity:1;stroke:#6ce490;stroke-width:0.0785674;stroke-opacity:1"
       d="m 522.08051,485.026 c 0,-0.40695 1.28782,-2.4014 3.41872,-5.29456 2.40187,-3.26108 4.94581,-7.17401 6.97156,-10.72322 4.36694,-7.65109 8.12233,-15.9669 10.5733,-23.4131 1.17404,-3.5668 1.64736,-5.36007 2.60255,-9.86021 0.34854,-1.64206 0.67235,-3.1535 0.71958,-3.35875 l 0.0859,-0.3732 6.72932,-5.3e-4 c 9.32588,-7.5e-4 13.42933,-0.16539 15.7404,-0.63155 0.87988,-0.17747 1.04833,-0.18553 1.38977,-0.0665 0.70163,0.24459 0.64162,1.42639 -0.18043,3.55335 -1.0015,2.59125 -4.03804,8.7142 -6.70819,13.52655 -3.86525,6.96624 -8.47661,13.76529 -12.8156,18.89546 -2.63295,3.11306 -5.77896,6.25605 -8.16378,8.15596 -2.08349,1.65985 -3.28857,2.40178 -6.54315,4.0284 -5.48799,2.74286 -10.58572,4.95686 -12.74541,5.53547 -0.90642,0.24284 -1.0745,0.24697 -1.0745,0.0264 z"
       id="path46237" /><path
       style="fill:#6ce490;fill-opacity:1;stroke:#6ce490;stroke-width:0.0785674;stroke-opacity:1"
       d="m 570.0852,461.49963 c 0,-0.34668 2.19121,-4.30415 5.6305,-10.16908 3.05327,-5.20668 5.80894,-10.71385 6.99354,-13.97655 0.15073,-0.41517 0.58729,-1.96963 0.97013,-3.45436 0.38284,-1.48473 0.70694,-2.70942 0.72023,-2.72153 0.0237,-0.0216 5.98476,-0.66609 7.60591,-0.82232 2.43683,-0.23483 5.36122,-0.25124 5.58114,-0.0313 0.58222,0.58222 -5.67767,10.15571 -10.97366,16.78245 -2.478,3.10066 -8.79108,8.96181 -13.62079,12.64575 -1.14654,0.87454 -2.32022,1.65748 -2.66467,1.77756 -0.19888,0.0693 -0.24233,0.0638 -0.24233,-0.0306 z"
       id="path46239" /><path
       style="fill:#6ce490;fill-opacity:1;stroke:#6ce490;stroke-width:0.0785674;stroke-opacity:1"
       d="m 609.6439,371.92303 c -5.10841,-0.0853 -9.33825,-0.19447 -10.09592,-0.2606 -1.86056,-0.16238 -2.8148,-0.42779 -3.40459,-0.94695 -0.47469,-0.41784 -0.65063,-0.72084 -0.84741,-1.45943 -0.14568,-0.54677 -0.17197,-0.95156 -0.22893,-3.52471 -0.0354,-1.59885 -0.12162,-3.57874 -0.19162,-4.39977 -0.59076,-6.92895 -2.53791,-18.43482 -4.05788,-23.97831 -0.3386,-1.2349 -0.63581,-2.07914 -1.00422,-2.85247 -0.29513,-0.61953 -0.30352,-0.81603 -0.0451,-1.05557 0.38201,-0.35403 1.33354,-0.47171 4.79068,-0.59246 1.29637,-0.0453 3.24586,-0.11936 4.33221,-0.16463 2.27952,-0.095 2.29511,-0.0921 2.93288,0.5457 3.03901,3.03902 7.41895,17.66826 9.42382,31.47613 0.1631,1.12333 0.94948,7.09016 0.94948,7.20443 0,0.0347 -0.30936,0.0552 -0.68747,0.0457 -0.3781,-0.01 -1.21779,-0.0262 -1.86597,-0.0371 z"
       id="path46241" /><path
       style="fill:#6ce490;fill-opacity:1;stroke:#6ce490;stroke-width:0.0785674;stroke-opacity:1"
       d="m 564.46763,371.89381 c -6.48844,-0.11288 -10.6572,-0.39604 -11.04886,-0.75049 -0.28836,-0.26096 -0.6143,-1.63239 -0.84947,-3.57429 -0.21171,-1.74812 -0.3003,-3.00674 -0.39756,-5.64821 -0.27711,-7.52602 -0.76838,-14.17875 -1.53167,-20.7418 -0.5326,-4.57952 -0.62362,-6.11868 -0.42527,-7.19164 0.21585,-1.16765 0.88722,-1.82778 2.15881,-2.12269 0.67529,-0.15661 2.65251,-0.27376 3.84444,-0.22779 1.26428,0.0488 5.47624,0.17621 8.99597,0.27222 7.30484,0.19925 12.32341,0.45506 12.5459,0.63951 0.0511,0.0424 0.19954,0.52548 0.32981,1.07354 0.96958,4.0791 4.34516,24.09401 5.19006,30.77353 0.13532,1.06979 0.86898,7.44068 0.86898,7.54596 0,0.0555 -15.97586,0.0166 -19.68114,-0.0479 z"
       id="path46243" /><path
       style="fill:#6ce490;fill-opacity:1;stroke:#6ce490;stroke-width:0.0785674;stroke-opacity:1"
       d="m 514.10591,371.8929 c -6.4012,-0.11685 -10.93956,-0.37855 -11.31408,-0.6524 -0.32818,-0.23997 -0.4307,-6.1297 -0.43127,-24.77799 l -4.8e-4,-15.41903 17.69434,0.0198 17.69433,0.0198 0.2936,1.64991 c 0.42574,2.39247 0.59571,4.17648 0.92819,9.74236 0.31635,5.2957 0.45056,8.25142 1.01227,22.29351 l 0.28835,7.20856 -11.47199,-0.0129 c -6.3096,-0.007 -12.92156,-0.0393 -14.69326,-0.0717 z"
       id="path46245" /><path
       style="fill:#6ce490;fill-opacity:1;stroke:#6ce490;stroke-width:0.0785674;stroke-opacity:1"
       d="m 482.63966,371.85533 c -15.11239,-0.22466 -21.71537,-0.41409 -28.67711,-0.82272 -1.4476,-0.085 -2.69388,-0.15463 -2.7695,-0.1548 -0.12759,-2.8e-4 -0.13745,-0.15452 -0.13688,-2.14126 5.7e-4,-2.04401 0.088,-3.70598 0.35441,-6.73716 0.72678,-8.26928 2.22167,-21.82831 2.90794,-26.37566 0.16029,-1.06212 0.42158,-2.43912 0.80197,-4.22635 l 0.0669,-0.31427 17.89021,-0.0198 17.89022,-0.0198 v 20.46698 20.46698 l -0.8446,-0.0117 c -0.46453,-0.006 -3.83213,-0.0561 -7.48355,-0.1104 z"
       id="path46247" /><path
       style="fill:#6ce490;fill-opacity:1;stroke:#6ce490;stroke-width:0.0785674;stroke-opacity:1"
       d="m 426.50324,371.45276 c -4.55403,-0.10492 -15.41545,-0.45751 -16.76664,-0.54429 l -0.73889,-0.0475 0.0505,-1.9363 c 0.0278,-1.06496 0.10348,-2.47115 0.16831,-3.12486 0.57899,-5.83895 2.47202,-17.37072 4.00946,-24.42442 0.26429,-1.21252 1.85907,-8.0433 2.12854,-9.11695 l 0.0485,-0.19329 2.60385,-5.6e-4 c 5.50405,-0.001 10.47387,-0.22942 20.77051,-0.95389 2.6024,-0.1831 4.75424,-0.31031 4.78187,-0.28268 0.0276,0.0276 -0.25394,1.82872 -0.62569,4.00244 -0.87854,5.1369 -0.93596,5.50752 -1.26351,8.15556 -0.79377,6.41705 -1.17248,10.94811 -1.78401,21.34456 l -0.41673,7.08458 -0.22709,0.0454 c -0.21231,0.0425 -10.8393,0.0359 -12.73895,-0.008 z"
       id="path46249" /><path
       style="fill:#6ce490;fill-opacity:1;stroke:#6ce490;stroke-width:0.0785674;stroke-opacity:1"
       d="m 390.87292,371.30006 c -0.10803,-0.0139 -1.46922,-0.0811 -3.02485,-0.14939 -4.42481,-0.19411 -6.23824,-0.41307 -7.16128,-0.86468 -0.63868,-0.31247 -0.70014,-0.48206 -0.58171,-1.60525 0.33157,-3.14464 2.28071,-12.9807 4.12643,-20.82349 0.99133,-4.21228 1.56019,-6.28435 3.75317,-13.67073 l 0.33823,-1.13923 3.37668,-0.05 c 4.27411,-0.0634 5.93993,-0.20432 11.35128,-0.96055 1.01548,-0.14191 1.85431,-0.25333 1.86407,-0.24761 0.01,0.006 -0.30022,0.76847 -0.68883,1.69498 -1.02027,2.43248 -1.24871,3.21034 -2.11448,7.19999 -0.8904,4.10318 -1.61928,8.269 -2.91153,16.64058 -1.14972,7.44821 -1.47077,9.18961 -2.00617,10.88158 -0.58176,1.83845 -1.42916,2.77317 -2.76971,3.05513 -0.36881,0.0776 -3.02498,0.10653 -3.5513,0.0387 z"
       id="path46251" /><path
       style="fill:#6ce490;fill-opacity:1;stroke:#6ce490;stroke-width:0.0785674;stroke-opacity:1"
       d="m 397.4333,320.81699 c -0.67381,-0.0762 -1.10705,-0.17617 -1.29637,-0.29913 -0.10115,-0.0657 -0.0855,-0.13527 0.11047,-0.49107 0.80615,-1.46364 5.94793,-8.75135 7.77586,-11.02113 5.76652,-7.16037 14.66527,-15.6742 16.38285,-15.6742 0.31554,0 0.31236,0.0784 -0.0377,0.92762 -0.51564,1.25101 -1.64907,3.29956 -3.7459,6.77025 -2.47494,4.09654 -4.56644,7.84145 -6.1666,11.04153 -1.57215,3.14406 -2.2844,4.91205 -2.48772,6.17514 -0.24018,1.49207 -1.00965,2.11423 -2.99246,2.41956 -1.53535,0.23642 -5.99865,0.32603 -7.54247,0.15143 z"
       id="path46253" /><path
       style="fill:#6ce490;fill-opacity:1;stroke:#6ce490;stroke-width:0.0785674;stroke-opacity:1"
       d="m 420.00919,319.82833 c 3.13782,-6.0042 5.31044,-10.06334 6.36043,-11.88333 2.05719,-3.56577 6.29338,-10.02032 9.12696,-13.90643 5.32351,-7.30093 8.78305,-11.54351 12.17515,-14.93087 2.17839,-2.17534 3.59371,-3.27092 6.8408,-5.29539 7.11081,-4.4334 15.92767,-8.24866 17.09301,-7.39654 0.13475,0.0985 0.14143,0.14082 0.0574,0.36342 -0.26903,0.71274 -1.62481,2.59449 -3.78045,5.24706 -1.43655,1.76771 -2.47649,3.11614 -3.42236,4.43753 -5.55028,7.75382 -10.21295,16.84885 -14.4202,28.12811 -1.10966,2.97491 -1.9349,5.3687 -3.74895,10.87469 l -1.48154,4.49673 -12.43606,0.001 c -11.81909,10e-4 -12.43249,-0.006 -12.3642,-0.13624 z"
       id="path46255" /><path
       style="fill:#6ce490;fill-opacity:1;stroke:#6ce490;stroke-width:0.0785674;stroke-opacity:1"
       d="m 461.54431,318.24141 c -1.82549,-0.0945 -2.58798,-0.25556 -2.86256,-0.60462 -0.28,-0.35597 -0.27628,-0.37344 0.74533,-3.50085 3.49172,-10.68894 9.55057,-23.06965 16.06999,-32.83757 3.04447,-4.56147 5.78589,-7.99339 8.52735,-10.67522 1.43174,-1.4006 2.00245,-1.86633 4.25495,-3.47229 l 1.62778,-1.16055 0.0198,25.90079 c 0.0109,14.24543 0.002,25.91822 -0.019,25.93954 -0.0493,0.0493 -17.77986,0.38088 -23.13887,0.43267 -2.22542,0.0215 -4.57655,0.0117 -5.22473,-0.0219 z"
       id="path46257" /><path
       style="fill:#6ce490;fill-opacity:1;stroke:#6ce490;stroke-width:0.0785674;stroke-opacity:1"
       d="m 527.38381,319.64268 c -5.42298,-0.19653 -10.63658,-0.35405 -18.03122,-0.54477 -3.565,-0.092 -6.56137,-0.18245 -6.65859,-0.20111 -0.17613,-0.0338 -0.17679,-0.0396 -0.17869,-1.58413 -10e-4,-0.85261 -0.0537,-5.89891 -0.11694,-11.214 -0.24638,-20.70005 -0.23308,-32.2484 0.043,-37.35881 0.0734,-1.35924 0.19601,-2.58197 0.26582,-2.65178 0.0662,-0.0662 0.74937,0.33917 1.42063,0.8431 2.76735,2.07749 8.39319,7.65497 11.01046,10.91579 2.16753,2.70051 5.18536,8.00226 9.52953,16.74157 5.46687,10.99789 9.63767,20.78336 10.23111,24.0041 0.1101,0.59751 0.0677,0.67597 -0.46337,0.85691 -0.93794,0.31959 -2.4326,0.36052 -7.05177,0.19313 z"
       id="path46259" /><path
       style="fill:#6ce490;fill-opacity:1;stroke:#6ce490;stroke-width:0.0785674;stroke-opacity:1"
       d="m 572.59281,320.71977 c -0.056,-0.0542 -2.95101,-0.19879 -6.3967,-0.31936 -3.35505,-0.11741 -6.16964,-0.19774 -13.7365,-0.39205 -2.32642,-0.0597 -4.23924,-0.12027 -4.25072,-0.13451 -0.0115,-0.0142 -0.38318,-1.22796 -0.82601,-2.69717 -1.27033,-4.21471 -1.99596,-6.49607 -2.70541,-8.50574 -2.1369,-6.05329 -5.28748,-13.79664 -8.22322,-20.21066 -1.03271,-2.25626 -2.95651,-6.07025 -3.62615,-7.18892 -1.18611,-1.98147 -4.16651,-5.97672 -7.30738,-9.79563 -1.90045,-2.3107 -3.27946,-4.36044 -3.28231,-4.87878 -0.001,-0.24572 0.36147,-0.31948 1.05989,-0.21546 2.8144,0.41915 10.19147,4.06962 15.87062,7.8534 7.05963,4.70354 10.21704,7.9301 17.68788,18.0752 5.90119,8.01358 9.46428,13.5311 11.95936,18.51937 1.24644,2.49194 2.17145,4.75956 3.20899,7.86672 0.58524,1.75261 0.69619,2.14816 0.56766,2.02359 z"
       id="path46261" /><path
       style="fill:#6ce490;fill-opacity:1;stroke:#6ce490;stroke-width:0.0785674;stroke-opacity:1"
       d="m 583.9509,316.64635 c -1.4138,-3.55842 -2.52596,-6.18999 -3.81021,-9.01562 -0.76446,-1.682 -1.18352,-2.57156 -3.21996,-6.83536 -1.48302,-3.10508 -2.43575,-5.563 -2.43575,-6.28394 0,-0.26883 0.0246,-0.31572 0.16578,-0.31572 1.40427,0 8.29188,7.05569 14.57218,14.9278 3.36502,4.21791 7.85308,10.27634 7.71498,10.41443 -0.10419,0.10419 -1.37795,0.26458 -2.72674,0.34334 -0.79624,0.0465 -3.1338,0.0845 -5.19457,0.0845 h -3.74684 z"
       id="path46263" /><path
       style="fill:#000000;fill-opacity:1;stroke:#000000;stroke-opacity:1"
       d="m 392.66545,708.80164 -7.46107,37.30535"
       id="path48239" /><path
       style="fill:#000000;fill-opacity:1;stroke:#000000;stroke-opacity:1"
       d="m 385.35754,745.69285 -10.25007,-2.71325 9.64713,-35.12158 8.21513,1.13052 z"
       id="path48480" /><path
       style="fill:#000000;fill-opacity:1;stroke:#000000;stroke-opacity:1"
       d="m 602.79477,707.85802 8.59197,39.94514 10.70228,-0.45221 -10.25007,-41.75398 z"
       id="path48482" /><path
       style="fill:#000000;fill-opacity:1;stroke:#000000;stroke-opacity:1"
       d="m 604.13349,705.60404 6.82155,45.61912 9.37963,0.42634 -5.54251,-40.9293 z"
       id="path48484" /><path
       style="fill:#000000;fill-opacity:1;stroke:#000000;stroke-opacity:1"
       d="m 601.53343,574.7578 -50.79816,0.15074 0.30147,-3.91915 50.79816,-0.15074 z"
       id="path48744"
       clip-path="url(#clipPath49894)" /><path
       style="fill:#000000;fill-opacity:1;stroke:#000000;stroke-opacity:1"
       d="m 635.3634,575.35508 -24.0353,-0.26647 -0.21318,-3.51736 22.91615,0.53293 z"
       id="path50163" /><path
       style="fill:#ffffff;stroke:#ffffff;stroke-width:0.0753682"
       d="m 293.07325,690.21247 c 0.0179,-0.0777 0.11931,-0.63312 0.22532,-1.23418 1.07092,-6.07151 4.87009,-19.96441 6.7361,-24.6327 0.62421,-1.56161 0.80607,-1.78875 1.63793,-2.04568 1.87201,-0.57821 5.74524,-0.62202 28.85935,-0.32647 l 3.6978,0.0473 -0.21635,0.91114 c -0.45208,1.90391 -1.41103,4.86284 -3.16532,9.7669 -1.1154,3.11807 -1.54271,4.43933 -2.13281,6.59472 -1.01561,3.70958 -1.87446,8.1353 -2.01106,10.36313 l -0.0208,0.33915 -6.78314,0.0495 c -10.5981,0.0773 -23.26853,0.20887 -25.14954,0.26108 -1.64628,0.0457 -1.70883,0.0422 -1.67748,-0.0939 z"
       id="path370" /><path
       style="fill:#ffffff;stroke:#ffffff;stroke-width:0.106587"
       d="m 245.8294,690.12752 c 0.032,-0.10545 0.35094,-1.27091 0.70885,-2.58992 1.11721,-4.1173 2.06382,-7.36822 3.36742,-11.56466 0.85056,-2.73803 4.18948,-12.74106 4.2941,-12.86462 0.11044,-0.13043 26.79178,-1.15809 26.91328,-1.03658 0.0729,0.0728 -0.38362,2.10032 -0.93401,4.14852 -0.896,3.33437 -1.79358,6.25072 -3.47727,11.29819 -0.92886,2.78458 -1.88339,5.85427 -2.12118,6.82155 -0.42734,1.73831 -0.97096,4.59197 -0.97413,5.11347 -8.5e-4,0.14803 -0.0388,0.32771 -0.0843,0.39928 -0.0634,0.0999 -2.57284,0.15476 -10.79027,0.23607 -5.88918,0.0583 -12.11452,0.13395 -13.83409,0.16818 -2.97621,0.0592 -3.1237,0.053 -3.06839,-0.12948 z"
       id="path372" /><path
       style="fill:#ffffff;stroke:#ffffff;stroke-width:0.106587"
       d="m 346.99542,689.67591 c 0.13338,-1.19811 0.69165,-4.48453 1.05179,-6.19164 1.04312,-4.94448 1.72049,-7.50223 4.08489,-15.42443 l 1.78908,-5.99453 11.40478,3.8e-4 c 13.58213,4.5e-4 18.15863,0.12787 20.36772,0.56709 l 0.62986,0.12523 -0.0181,0.43142 c -0.0239,0.56932 -0.5659,2.98936 -1.84841,8.25357 -1.82447,7.48873 -2.77279,12.9622 -2.9501,17.02723 l -0.0663,1.51886 -3.04777,-7.4e-4 c -3.62663,-9.6e-4 -27.75388,0.19762 -29.93944,0.2464 l -1.52402,0.034 0.066,-0.5928 z"
       id="path374" /><path
       style="fill:#ffffff;stroke:#ffffff;stroke-width:0.106587"
       d="m 508.52521,675.93207 v -14.40163 h 15.39331 15.39331 l 0.0596,0.29311 c 0.31076,1.52727 1.1949,6.73053 1.39675,8.21998 0.51662,3.81208 1.07996,10.07692 1.3814,15.36233 0.0886,1.55351 0.18916,3.21089 0.22346,3.68308 l 0.0624,0.85852 -16.66201,0.13414 c -9.16411,0.0738 -16.79391,0.16068 -16.95512,0.19312 l -0.29312,0.059 z"
       id="path376" /><path
       style="fill:#ffffff;stroke:#ffffff;stroke-width:0.106587"
       d="m 562.53015,686.88061 c -0.14148,-7.11733 -0.67313,-12.35434 -2.05103,-20.20359 -0.43576,-2.48228 -0.79229,-4.54113 -0.79229,-4.57521 0,-0.10681 27.44737,0.045 29.57782,0.16364 2.97217,0.16546 2.62901,-0.008 3.03798,1.53234 1.25084,4.71001 3.85605,18.10016 5.04502,25.93022 l 0.0332,0.21856 -17.11497,0.13381 c -9.41323,0.0736 -17.23922,0.15924 -17.39109,0.19032 l -0.27613,0.0565 z"
       id="path378" /><path
       style="fill:#ffffff;stroke:#ffffff;stroke-width:0.106587"
       d="m 617.56342,689.59033 c 0,-1.05617 -0.18148,-3.21908 -0.43159,-5.14375 -0.44321,-3.41058 -1.39666,-7.53136 -3.35399,-14.49579 -1.01765,-3.62092 -1.88838,-6.9388 -1.835,-6.99218 0.0984,-0.0985 9.30261,-0.52157 21.71517,-0.99824 4.54326,-0.17447 8.57621,-0.33561 8.96211,-0.35807 l 0.70163,-0.0408 1.82967,6.40635 c 2.51827,8.81735 3.399,12.2319 4.31919,16.74525 0.3597,1.76427 0.87935,5.14693 0.8008,5.21279 -0.0215,0.0181 -7.1858,0.0891 -15.92058,0.15795 -8.73478,0.0688 -16.08527,0.15306 -16.33442,0.1872 l -0.45299,0.0621 z"
       id="path380" /><path
       style="fill:#ffffff;stroke:#ffffff;stroke-width:0.106587"
       d="m 670.5047,688.48281 c -0.0781,-2.04624 -0.2794,-3.69327 -0.72116,-5.90149 -0.58177,-2.90809 -1.15276,-4.8843 -3.30593,-11.44201 -1.51721,-4.62078 -2.59634,-8.10481 -2.5307,-8.17045 0.10506,-0.10506 10.97162,-0.58255 22.89787,-1.00616 3.31219,-0.11765 6.38509,-0.23688 6.82867,-0.26495 l 0.80652,-0.051 0.48914,1.40743 c 0.26902,0.77409 1.56883,4.47713 2.88846,8.22898 3.45665,9.82765 4.50421,13.38528 5.1628,17.53352 l 0.1946,1.22575 h -1.86983 c -1.02841,0 -8.37323,0.0416 -16.32182,0.0925 l -14.452,0.0925 z"
       id="path382" /><path
       style="fill:#ffffff;stroke:#ffffff;stroke-width:0.106587"
       d="m 721.55404,689.71351 c -0.0377,-0.27515 -0.0686,-0.79479 -0.0686,-1.15475 0,-0.87921 -0.2767,-3.06317 -0.54705,-4.31783 -0.5707,-2.64849 -1.4244,-5.16061 -3.82397,-11.25242 -1.79129,-4.54757 -3.5164,-9.28624 -3.5164,-9.65911 0,-0.15924 1.09852,-0.40881 2.50479,-0.56907 1.94749,-0.22193 5.44252,-0.3578 12.41735,-0.48275 9.69242,-0.17363 9.9183,-0.17313 10.28562,0.0227 0.95919,0.51129 1.40712,1.42624 3.1454,6.4248 1.69539,4.87526 3.06191,8.4569 4.72515,12.3846 1.43026,3.37752 2.71573,7.04971 3.00011,8.57034 l 0.0678,0.36241 -13.51652,0.0285 c -7.43408,0.0157 -13.76145,0.0542 -14.06082,0.0857 l -0.5443,0.0572 z"
       id="path384" /><path
       style="fill:#ffffff;stroke:#ffffff;stroke-width:0.213173"
       d="m 595.07362,736.47833 c -1.75868,-0.0263 -49.05006,-0.15575 -105.09195,-0.28766 -56.04189,-0.13191 -101.90982,-0.25697 -101.92873,-0.27792 -0.0189,-0.0209 1.20165,-5.98562 2.71236,-13.25483 1.51072,-7.26921 2.74812,-13.2887 2.7498,-13.37663 0.002,-0.0879 47.00133,-0.15988 104.44366,-0.15988 99.28386,0 104.44596,0.0184 104.54897,0.37305 0.27757,0.95563 5.2349,24.3748 5.35849,25.31435 0.0771,0.58622 0.1866,1.23374 0.24326,1.43892 0.10869,0.39356 -0.92208,0.41179 -13.03586,0.2306 z"
       id="path386" /><path
       style="fill:#ffffff;stroke:#ffffff;stroke-width:0.0753682"
       d="m 698.15121,642.27483 c -0.21394,-2.81039 -0.57196,-5.25698 -1.06791,-7.29784 -0.74364,-3.06008 -1.63979,-5.60094 -5.00738,-14.19748 -0.68811,-1.75654 -1.25111,-3.20652 -1.25111,-3.22217 0,-0.0156 6.85729,-0.0199 15.23841,-0.009 l 15.23841,0.019 1.98198,5.4642 c 3.24961,8.95898 5.37399,15.01263 6.53575,18.62433 l 0.47545,1.47807 -7.50651,0.0504 c -11.65568,0.0782 -22.5596,0.18837 -23.60089,0.23847 l -0.94538,0.0455 z"
       id="path388" /><path
       style="fill:#ffffff;stroke:#ffffff;stroke-width:0.0753682"
       d="m 643.31504,641.25677 c 0.0564,-1.2059 -0.0716,-3.68937 -0.27409,-5.32012 -0.27698,-2.23038 -0.64384,-4.13314 -1.50738,-7.81817 -0.9682,-4.13165 -1.85001,-8.35826 -1.93606,-9.27979 -0.0426,-0.45662 -0.0391,-0.46822 0.17676,-0.57985 0.49692,-0.25697 1.91529,-0.44479 4.43532,-0.58733 1.54702,-0.0875 27.09486,-0.19156 27.09486,-0.11036 0,0.038 6.84754,23.91752 6.97155,24.31203 0.0314,0.1 -0.98949,0.11481 -8.83799,0.12831 -9.5735,0.0165 -25.13148,0.14723 -25.77453,0.21663 l -0.39537,0.0427 z"
       id="path390" /><path
       style="fill:#ffffff;stroke:#ffffff;stroke-width:0.0753682"
       d="m 589.5063,641.71405 c -0.0542,-2.96047 -0.1593,-4.65952 -0.50781,-8.20674 -0.32937,-3.35246 -0.6085,-5.29864 -1.34581,-9.38334 -0.47681,-2.64153 -0.91133,-5.47246 -0.91133,-5.93734 0,-0.27572 0.005,-0.28054 0.29311,-0.28054 0.16121,0 0.88192,-0.0331 1.60157,-0.0735 1.62337,-0.0912 4.71134,-0.20202 8.50613,-0.30512 4.94635,-0.13439 20.83049,-0.44663 20.86694,-0.41018 0.019,0.019 0.56732,1.8925 1.21849,4.16333 1.66737,5.81457 2.45318,8.97158 3.34641,13.44415 0.4072,2.03896 0.57134,2.99489 1.16922,6.8093 0.16893,1.07776 0.32814,2.08675 0.35381,2.2422 l 0.0467,0.28263 -6.77416,0.002 c -6.87418,0.002 -19.39615,0.0992 -24.8318,0.19364 l -2.98401,0.0518 -0.0474,-2.59181 z"
       id="path392" /><path
       style="fill:#ffffff;stroke:#ffffff;stroke-width:0.0753682"
       d="m 535.97133,643.72815 c 0.19133,-2.47935 0.22406,-3.50517 0.2239,-7.0177 -2.5e-4,-5.18881 -0.10685,-7.29012 -0.62895,-12.39806 -0.56717,-5.54878 -0.63113,-6.34209 -0.51713,-6.41431 0.0565,-0.0358 0.27225,-0.0661 0.47951,-0.0673 0.20726,-10e-4 0.95341,-0.0347 1.6581,-0.0743 2.86573,-0.16114 27.15771,-1.20703 28.03461,-1.20703 h 0.23037 l 0.50329,1.60158 c 0.27681,0.88086 0.58786,1.94073 0.69122,2.35525 0.87181,3.49637 2.10492,12.21183 2.90582,20.53783 0.12561,1.30576 0.24461,2.51269 0.26445,2.68208 l 0.0361,0.30798 -9.36137,0.0486 c -9.09251,0.0472 -21.85823,0.17025 -23.672,0.22819 l -0.8951,0.0286 z"
       id="path394" /><path
       style="fill:#ffffff;stroke:#ffffff;stroke-width:0.0753682"
       d="m 482.54771,642.04275 c 0.0849,-4.66234 0.23156,-8.84239 0.45278,-12.9068 0.12532,-2.30245 0.68304,-10.92512 0.75438,-11.66323 l 0.0455,-0.47105 h 15.29084 15.29083 l 0.0739,0.28263 c 0.18681,0.71467 0.61755,3.11145 0.75512,4.20178 0.34954,2.77031 0.63734,6.16703 0.94829,11.19218 0.10389,1.67882 0.31049,4.89491 0.45911,7.14685 0.14863,2.25195 0.25814,4.10654 0.24337,4.12131 -0.0415,0.0415 -29.47147,0.33854 -33.54315,0.33854 h -0.81183 z"
       id="path396" /><path
       style="fill:#ffffff;stroke:#ffffff;stroke-width:0.0753682"
       d="m 427.8652,644.22862 c 0,-1.02636 1.39019,-11.35973 2.41356,-17.94011 0.65313,-4.19973 1.35375,-8.1977 1.46937,-8.38479 0.0324,-0.0524 0.73592,-0.084 5.83957,-0.26194 6.72571,-0.23452 25.75884,-0.75875 25.80348,-0.71071 0.0168,0.0181 -0.0489,5.78163 -0.14611,12.80783 -0.0972,7.0262 -0.1781,13.10074 -0.17981,13.49898 l -0.003,0.72408 -6.9904,0.0509 c -11.76593,0.0857 -22.75613,0.18947 -25.54982,0.24135 -1.74326,0.0324 -2.65673,0.0236 -2.65673,-0.0256 z"
       id="path398" /><path
       style="fill:#ffffff;stroke:#ffffff;stroke-width:0.0753682"
       d="m 373.82621,644.2289 c 0,-0.14635 0.972,-5.32125 1.20389,-6.40951 0.99888,-4.68764 2.17014,-9.18699 4.28127,-16.44636 l 1.2603,-4.33367 15.70422,-0.019 15.70423,-0.019 -0.0519,0.50891 c -0.22393,2.1954 -0.90641,6.81264 -1.7017,11.51267 -1.00551,5.94247 -1.46925,9.8449 -1.62687,13.69051 l -0.0513,1.25242 -4.00203,0.0464 c -2.20112,0.0255 -8.37716,0.0803 -13.72453,0.12165 -5.34737,0.0414 -11.35893,0.0975 -13.35901,0.12471 -2.52269,0.0343 -3.63652,0.0252 -3.63652,-0.0297 z"
       id="path400" /><path
       style="fill:#ffffff;stroke:#ffffff;stroke-width:0.0753682"
       d="m 320.19725,644.12752 c 0.0232,-0.1 0.21514,-0.96178 0.42658,-1.91519 0.80817,-3.64426 2.39173,-9.66969 3.75761,-14.29763 0.942,-3.19176 3.0716,-10.16273 3.11921,-10.21034 0.0392,-0.0392 1.29774,-0.0673 12.74904,-0.2848 14.29293,-0.27147 19.71834,-0.35808 19.76096,-0.31545 0.0572,0.0572 -0.85334,3.71779 -2.02731,8.15038 -0.49404,1.86536 -1.03406,3.95118 -1.20004,4.63514 -1.06511,4.38909 -1.86147,8.83535 -2.13958,11.94586 -0.0667,0.74615 -0.13806,1.53079 -0.15855,1.74366 l -0.0373,0.38703 -2.57701,0.0441 c -1.41736,0.0243 -7.64742,0.0803 -13.84457,0.12447 -6.19715,0.0442 -12.75337,0.10153 -14.56938,0.12742 l -3.30184,0.0471 z"
       id="path402" /><path
       style="fill:#ffffff;stroke:#ffffff;stroke-width:0.0753682"
       d="m 266.12533,644.20266 c 9.2e-4,-0.37515 2.00617,-6.88164 3.04073,-9.8663 1.52315,-4.39426 2.35782,-6.54093 4.81203,-12.37606 l 1.89538,-4.50642 0.79726,-7.7e-4 c 0.43849,-4.2e-4 7.08861,-0.10182 14.77805,-0.22533 7.68944,-0.12352 14.61351,-0.22492 15.38683,-0.22534 l 1.40602,-7.7e-4 -0.3605,1.41316 c -0.43287,1.69685 -1.5582,5.1234 -3.474,10.57801 -0.78038,2.22191 -1.62686,4.71471 -1.88106,5.53957 -0.92536,3.00275 -1.61391,6.0023 -1.84943,8.05676 -0.0665,0.58034 -0.1347,1.12739 -0.15148,1.21567 l -0.0305,0.16052 -4.76787,0.0461 c -2.62233,0.0253 -9.32954,0.0806 -14.9049,0.12285 -5.57536,0.0422 -11.16297,0.0988 -12.41691,0.12564 -1.93333,0.0414 -2.27985,0.0327 -2.27963,-0.0572 z"
       id="path404" /><path
       style="fill:#ffffff;stroke:#ffffff;stroke-width:0.0753682"
       d="m 290.5154,599.05532 c 0.47897,-1.83555 1.19323,-4.29399 1.9025,-6.54831 0.60638,-1.92728 1.20154,-3.69314 3.96689,-11.76991 l 1.48804,-4.34614 0.68828,-0.0411 c 1.61311,-0.0962 22.28472,-0.19462 25.82357,-0.1229 4.70716,0.0954 7.81158,0.25013 7.95808,0.39663 0.0328,0.0328 -0.59935,2.28707 -1.07237,3.82448 -0.14667,0.47671 -0.7368,2.37598 -1.31139,4.22062 -0.5746,1.84464 -1.25152,4.08307 -1.50427,4.9743 -0.87479,3.0846 -2.01844,7.90939 -2.33743,9.8611 -0.0835,0.5108 -0.10277,0.5498 -0.25204,0.50948 -0.0889,-0.024 -3.231,-0.0103 -6.98246,0.0304 -3.75145,0.0407 -11.46727,0.10826 -17.14626,0.15006 -5.67899,0.0418 -10.6039,0.0975 -10.94423,0.12373 l -0.61879,0.0477 z"
       id="path406" /><path
       style="fill:#ffffff;stroke:#ffffff;stroke-width:0.0753682"
       d="m 346.87957,600.1817 c 0.0193,-0.0551 0.17347,-0.71067 0.34268,-1.45681 1.57573,-6.94842 3.39699,-14.28586 4.71661,-19.00222 l 0.97268,-3.47638 10.13702,-0.0579 c 12.96061,-0.074 18.23949,-0.008 21.21615,0.26675 1.0731,0.0989 1.94943,0.22374 2.06289,0.29385 0.13421,0.0829 -0.43109,2.68334 -2.02478,9.31399 -0.88615,3.68693 -1.38793,5.99918 -1.84118,8.48436 -0.34006,1.86453 -0.79713,4.84902 -0.79713,5.20489 v 0.19416 l -2.92052,0.0499 c -1.60629,0.0275 -6.95649,0.0821 -11.88933,0.12143 -4.93285,0.0393 -11.45311,0.0923 -14.48947,0.11778 -4.57461,0.0384 -5.51464,0.0291 -5.48562,-0.0539 z"
       id="path408" /><path
       style="fill:#ffffff;stroke:#ffffff;stroke-width:0.0753682"
       d="m 401.66367,600.16752 c 0.0213,-0.0888 0.17814,-0.8736 0.34842,-1.74411 1.00528,-5.1392 4.20094,-20.24457 4.72267,-22.32332 l 0.05,-0.19901 15.86603,0.0499 c 8.72631,0.0274 15.87364,0.0585 15.88296,0.069 0.009,0.0105 -0.0976,0.76523 -0.23765,1.67718 -0.50815,3.3097 -0.97608,9.06881 -1.51002,18.58474 l -0.2097,3.7372 -8.89649,0.0498 c -9.24255,0.0517 -22.58427,0.17496 -24.78646,0.22891 -1.26541,0.031 -1.26843,0.0307 -1.22971,-0.1303 z"
       id="path412" /><path
       style="fill:#ffffff;stroke:#ffffff;stroke-width:0.0753682"
       d="m 455.8268,600.17896 c 0,-0.16487 0.43453,-5.03796 0.64378,-7.21974 0.84466,-8.80713 1.77393,-14.88383 2.6067,-17.04577 0.22265,-0.57804 0.48361,-0.99733 0.58262,-0.93614 0.11427,0.0706 1.32178,0.1945 2.61088,0.26785 2.8342,0.16127 6.3957,0.23663 14.40881,0.30488 8.20385,0.0699 10.07152,0.1242 11.81932,0.34378 1.43146,0.17984 2.13133,0.39772 2.30203,0.71667 0.22998,0.42971 0.26231,6.0592 0.0699,12.1658 -0.10974,3.48241 -0.37189,10.19593 -0.4182,10.7101 l -0.0414,0.46004 -2.27507,0.0498 c -1.25128,0.0274 -6.29407,0.0819 -11.20619,0.12102 -21.85289,0.17422 -21.1031,0.17202 -21.1031,0.0617 z"
       id="path414" /><path
       style="fill:#ffffff;stroke:#ffffff;stroke-width:0.0753682"
       d="m 509.56432,587.87187 v -12.3227 h 15.58953 c 14.8646,0 15.5952,0.006 15.71122,0.13446 0.75849,0.83812 1.44438,5.03413 1.89376,11.58529 0.20452,2.98151 0.64581,11.4485 0.64581,12.39112 v 0.35458 l -12.71838,0.0919 c -6.99511,0.0505 -14.60919,0.091 -16.92016,0.09 l -4.20178,-0.002 z"
       id="path416" /><path
       style="fill:#ffffff;stroke:#ffffff;stroke-width:0.0753682"
       d="m 563.50524,598.14859 c -0.0937,-4.31793 -0.64053,-9.557 -1.5949,-15.28092 -0.52495,-3.14849 -1.02028,-6.66788 -1.02028,-7.24929 v -0.20322 l 15.16784,0.0105 c 8.34232,0.006 15.42071,-0.006 15.72976,-0.0267 l 0.56191,-0.0372 1.03938,4.29546 c 2.75622,11.39062 3.24921,13.53243 4.09879,17.80729 0.2659,1.33798 0.48347,2.46101 0.48347,2.49563 0,0.0346 -2.68782,0.0676 -5.97293,0.0733 -6.45392,0.0111 -20.83314,0.12596 -25.53798,0.20392 l -2.90868,0.0482 z m 22.53738,-22.34348 c -0.025,-0.025 -0.0901,-0.0277 -0.14446,-0.006 -0.0601,0.0241 -0.0423,0.0419 0.0455,0.0455 0.0794,0.003 0.12396,-0.0145 0.0989,-0.0396 z"
       id="path418" /><path
       style="fill:#ffffff;stroke:#ffffff;stroke-width:0.0753682"
       d="m 617.35322,599.12732 c -0.29793,-3.66059 -0.68163,-6.20516 -1.70858,-11.33082 -0.71453,-3.5663 -1.36366,-7.08213 -1.64896,-8.93113 -0.23557,-1.52668 -0.44651,-3.16765 -0.41154,-3.2014 0.0495,-0.0478 8.77654,0.11503 10.23835,0.19104 0.80833,0.042 6.08222,0.0961 11.71976,0.1202 l 10.25007,0.0438 1.50275,5.05971 c 2.08957,7.03555 2.66108,8.99471 3.4327,11.76748 0.78749,2.8298 1.90948,7.12331 1.87142,7.16137 -0.0146,0.0146 -5.97808,0.0616 -13.25224,0.10457 -7.27415,0.0429 -15.17735,0.099 -17.56268,0.12469 l -4.33695,0.0466 z"
       id="path420" /><path
       style="fill:#ffffff;stroke:#ffffff;stroke-width:0.0753682"
       d="m 672.24986,600.17572 c -0.0163,-0.0518 -0.0516,-0.38249 -0.0785,-0.73483 -0.28382,-3.72062 -1.53794,-10.32057 -2.9359,-15.45048 -0.89328,-3.27797 -1.75828,-7.04852 -1.66987,-7.27894 0.0553,-0.14421 0.71739,-0.3205 1.66545,-0.44347 2.17031,-0.28149 3.55044,-0.30489 16.61691,-0.28174 6.98332,0.0124 12.70956,0.0351 12.72499,0.0505 0.0512,0.0512 4.97798,13.44468 6.00311,16.31948 1.05661,2.96309 2.61959,7.54603 2.58524,7.58038 -0.0317,0.0317 -30.75513,0.32786 -34.52139,0.3328 -0.22259,3e-4 -0.3717,-0.0355 -0.39001,-0.0937 z"
       id="path422" /><path
       style="fill:#ffffff;stroke:#ffffff;stroke-width:0.426347"
       d="m 481.77195,512.38566 c -7.98248,-0.85573 -19.93915,-3.6966 -28.26475,-6.71562 -40.97094,-14.85682 -74.94197,-48.06944 -88.32991,-86.35791 -2.2127,-6.32814 -5.24881,-17.43273 -6.00324,-21.95686 -0.86707,-5.1996 -1.28664,-28.44412 -0.68174,-37.76925 1.29196,-19.917 9.24537,-40.62043 23.07925,-60.07735 13.23361,-18.61267 32.6407,-35.06201 53.98548,-45.7578 9.42981,-4.72524 14.63285,-6.67291 24.04487,-9.00077 17.99205,-4.44996 38.59749,-5.92013 54.13993,-3.8628 15.0609,1.99358 31.08577,6.58898 42.00129,12.04457 37.54906,18.76709 64.68203,50.84868 75.08788,88.78272 2.95761,10.78183 4.09335,20.72758 4.16295,36.45507 0.0395,8.93408 -0.078,10.90849 -0.92634,15.56166 -6.04135,33.13696 -18.69032,57.80564 -40.44552,78.87897 -11.39222,11.03516 -22.72125,19.01324 -36.63315,25.79765 -17.16076,8.36877 -31.32709,12.51735 -47.20792,13.82473 -5.041,0.415 -24.56999,0.52167 -28.00908,0.15299 z m 25.36763,-11.22887 c 11.89446,-1.00317 22.82602,-3.41396 32.12222,-7.08408 14.77631,-5.83366 36.15497,-19.08074 47.15347,-29.21819 17.39409,-16.03234 32.14948,-45.03295 36.48529,-71.70907 1.6904,-10.40022 1.85062,-23.02709 0.42536,-33.52188 -2.47869,-18.25159 -11.05283,-40.07532 -21.69175,-55.21192 -11.70745,-16.65687 -28.99017,-30.40858 -52.28625,-41.60371 -22.14825,-10.64353 -43.97059,-13.62593 -72.90531,-9.96379 -19.49034,2.46681 -33.03748,7.8335 -52.44066,20.77431 -18.51536,12.34869 -26.7042,20.88089 -38.06991,39.66621 -12.50973,20.67616 -17.3011,38.48785 -17.33945,64.45864 -0.0195,13.24143 0.85547,19.72241 4.08694,30.27063 2.79261,9.11571 8.80445,22.2985 14.6927,32.21824 10.00666,16.85786 26.26136,32.22751 46.14569,43.63307 18.73352,10.74547 32.34232,15.1219 54.22288,17.43745 3.27089,0.34615 14.57238,0.26114 19.39878,-0.14591 z"
       id="path424" /><path
       style="fill:#ffffff;stroke:#ffffff;stroke-width:0.0753682"
       d="m 401.26023,690.24834 c 0,-0.16245 0.5237,-4.11472 0.79745,-6.01824 1.3268,-9.22587 3.12036,-18.94593 3.93497,-21.32535 0.11088,-0.32387 0.18256,-0.4219 0.33911,-0.46377 0.32005,-0.0856 2.89861,-0.21597 5.81918,-0.29423 1.49229,-0.04 7.82831,-0.0732 14.08005,-0.0738 l 11.36679,-10e-4 -0.0463,0.77252 c -0.0255,0.42489 -0.19737,4.50325 -0.38205,9.06303 -0.41236,10.1816 -0.71194,16.55087 -0.82999,17.64628 l -0.0417,0.38697 -2.80313,0.0439 c -1.54172,0.0242 -8.09398,0.0802 -14.56057,0.12465 -6.46659,0.0444 -13.08862,0.10188 -14.71563,0.12771 -1.62702,0.0258 -2.95821,0.031 -2.95821,0.0114 z"
       id="path525" /><path
       style="fill:#ffffff;stroke:#ffffff;stroke-width:0.0753682"
       d="m 454.95236,689.55712 c 0.0809,-1.2223 1.23294,-13.85246 1.44143,-15.8032 0.57701,-5.39889 1.1914,-9.67063 1.59051,-11.05869 0.10298,-0.35815 0.13865,-0.40061 0.39106,-0.46546 1.52719,-0.39238 8.1994,-0.59249 15.58761,-0.46748 10.56069,0.17868 14.98863,0.25664 14.9985,0.26408 0.006,0.004 0.0981,5.79042 0.20545,12.85807 0.10731,7.06765 0.21207,13.36197 0.23281,13.98736 l 0.0377,1.13709 -8.08145,0.0502 c -10.41267,0.0647 -23.89344,0.18783 -25.33234,0.23132 l -1.12209,0.0339 z"
       id="path527" /></g></svg>
